<svg width="1440" height="1440" fill="none" xmlns="http://www.w3.org/2000/svg"><g clip-path="url(#a)" fill="#fff"><path d="M592.448 1190.21c-16.224-23.52-58.944-34.21-91.744-34.21-9.36-.07-18.702.84-27.872 2.72-30.848 6.66-57.184 12.64-80.384 17.89-62.208 14.14-99.744 22.65-130.944 22.65-25.984 0-48.256-5.79-79.424-20.7a740.526 740.526 0 0 1-75.616-42.21c-30.112-18.66-49.984-30.97-77.216-30.97-9.889.13-19.719 1.54-29.248 4.19v2.3c9.525-2.67 19.356-4.1 29.248-4.25 26.592 0 46.24 12.19 76.032 30.62a742.651 742.651 0 0 0 75.84 42.37c31.488 15.04 54.016 20.89 80.384 20.89 31.456 0 69.088-8.54 131.424-22.68 23.232-5.28 49.536-11.27 80.384-17.89a129.248 129.248 0 0 1 27.392-2.69c32.224 0 74.112 10.4 89.92 33.21a35.235 35.235 0 0 1 6.121 16.64c.589 5.98-.362 12-2.761 17.51-9.408 24.96-53.408 46.98-92.256 66.43-23.456 11.75-45.632 22.85-57.024 33.15-33.312 30.15-25.312 70.95-11.808 114.95h2.304c-13.44-43.55-21.536-83.91 10.944-113.28 11.168-10.08 33.216-21.12 56.544-32.8 39.168-19.65 83.616-41.89 93.344-67.65a37.107 37.107 0 0 0 2.949-18.57 37.038 37.038 0 0 0-6.533-17.62zM10.176 934.078c4.544-98.688 67.456-170.656 118.016-228.48l3.584-4.096c5.856-6.176 19.392-22.688 18.336-42.624-.64-12.16-6.656-23.136-17.856-32.672-6.752-5.696-12.8-11.04-18.88-16a877.006 877.006 0 0 0-78.88-62.4c-11.712-8.128-23.232-16-34.496-23.04v1.12a1230.342 1230.342 0 0 1 33.952 22.688 878.942 878.942 0 0 1 78.816 62.368c5.92 5.088 12.128 10.432 18.848 16 11.008 9.344 16.896 20.128 17.536 32 1.056 19.456-12.288 35.808-17.952 41.856l-3.616 4.128C76.8 762.91 13.76 835.006 9.216 934.046c-.512 10.528-4.608 16.992-9.216 19.2v1.152c4.992-2.08 9.6-8.608 10.176-20.32zM570.657 1340.07a21.942 21.942 0 0 0-7.45-4.88 21.93 21.93 0 0 0-8.774-1.52c-20.128 0-45.28 19.87-53.696 28.96-30.912 33.44-34.464 52.16-28.288 77.34h1.664c-6.144-24.86-2.688-43.29 27.808-76.25 8.256-8.93 32.928-28.45 52.512-28.45 2.785-.1 5.561.38 8.157 1.39a20.44 20.44 0 0 1 6.947 4.5c6.688 6.68 10.016 19.2 9.92 36.96a272.484 272.484 0 0 1-8.544 61.88h1.664a273.725 273.725 0 0 0 8.48-61.85c.096-18.15-3.392-30.95-10.4-38.08z"/><path d="M32.544 935.102C36.736 844.222 96.8 775.55 145.056 720.35l3.616-4.128a371.393 371.393 0 0 0 24.384-30.528c7.52-10.752 21.504-30.752-11.52-62.592a917.169 917.169 0 0 0-114.272-93.856C30.859 517.897 15.104 507.614 0 498.398v1.12c14.933 9.152 30.507 19.328 46.72 30.528a917.837 917.837 0 0 1 114.144 93.728c32.416 31.296 18.752 50.848 11.424 61.376a376.315 376.315 0 0 1-24.352 30.464l-3.616 4.128C96 775.038 35.776 843.87 31.584 935.07c-1.952 42.304-9.6 66.91-23.648 77.47A16.234 16.234 0 0 1 0 1016.03v.99c3.124-.43 6.07-1.71 8.512-3.71 14.432-10.72 22.048-35.584 24.032-78.208zM423.136 285.089c-6.24-24.576-56.416-31.136-114.496-38.688-14.368-1.856-29.216-3.808-43.616-6.08-63.712-10.048-122.016-42.048-178.4-72.96C58.368 151.809 29.536 136.001 0 122.977v2.464c29.12 12.8 57.6 28.512 85.536 43.808 56.544 31.04 115.2 63.104 179.2 73.216 14.432 2.272 29.312 4.224 43.68 6.112 54.88 7.168 106.752 13.952 112.608 37.056 4.544 17.984-18.88 45.28-71.616 83.424-74.208 53.504-136.192 78.432-195.52 78.432A216.547 216.547 0 0 1 54.4 422.625 381.247 381.247 0 0 1 0 387.201v2.816a376.566 376.566 0 0 0 53.536 34.56 218.636 218.636 0 0 0 100.352 25.12c59.808 0 122.336-25.056 196.736-78.88 54.336-39.232 77.376-66.496 72.512-85.728z"/><path d="M8.288 790.174a318.811 318.811 0 0 1 30.624-42.24c15.584-19.2 31.712-39.04 40.416-63.424 15.296-42.976-14.72-62.848-46.464-83.872l-8.832-5.888c-5.248-3.552-10.176-6.88-15.04-10.272-2.4-1.664-5.344-3.776-8.992-6.4v1.12c3.37 2.475 6.187 4.491 8.448 6.048 4.864 3.2 9.792 6.72 15.072 10.272l8.8 6.08c31.456 20.8 61.152 40.48 46.08 82.752-8.608 24.224-24.704 44.032-40.224 63.136a318.676 318.676 0 0 0-30.72 42.368A142.451 142.451 0 0 0 0 806.398v2.592l.768-1.952a145.697 145.697 0 0 1 7.52-16.864zM1012.41 1345.22c-1.24-10.82-8.03-20.23-20.252-27.91-22.048-13.88-68.192-20.09-104.159-20.09-7.009 0-13.44.22-19.201.7a588.568 588.568 0 0 0-111.712 21.15 441.179 441.179 0 0 0-16.96 5.22c-66.848 22.18-105.599 57.31-124.064 115.71h1.696c18.496-57.6 56.8-92.25 122.88-114.21a474.335 474.335 0 0 1 16.864-5.18 585.543 585.543 0 0 1 111.425-21.09c5.632-.48 11.999-.7 18.975-.7 35.744 0 81.537 6.14 103.329 19.84 11.739 7.42 18.339 16.41 19.489 26.75 2.94 25.92-27.298 56.35-51.617 80.83-4.897 4.93-9.6 9.6-13.472 13.76h2.208c3.744-3.93 7.904-8.13 12.384-12.64 24.672-24.7 55.227-55.45 52.187-82.14zM401.216 1264a29.992 29.992 0 0 1 16.352-3.72c2.432 0 4.864 0 7.456.26 2.592.26 5.248.22 7.904.22a38.726 38.726 0 0 0 20.768-4.92c18.208-11.27 24.224-24.36 22.112-31.72-1.376-4.89-6.112-7.68-12.96-7.68-7.84.5-15.48 2.69-22.4 6.4a64.544 64.544 0 0 0-15.168 11.97c-5.792 5.54-11.744 11.27-18.56 13.12-2.084.58-4.237.87-6.4.87a44.366 44.366 0 0 1-12.288-2.28 45.383 45.383 0 0 0-12.8-2.36c-1.6-.01-3.198.14-4.768.44-8.128 1.51-13.664 6.66-19.2 11.65a45.355 45.355 0 0 1-15.2 10.56 88.955 88.955 0 0 1-28.512 3.55 437.934 437.934 0 0 1-48-3.61l-11.296-1.25c-29.632-2.94-60.416-12.22-94.144-28.35a801.033 801.033 0 0 1-81.792-45.6 64.511 64.511 0 0 0-33.92-10.75A62.13 62.13 0 0 0 0 1194.78v1.18a61.5 61.5 0 0 1 38.4-14.2 63.53 63.53 0 0 1 33.6 10.33 794.32 794.32 0 0 0 81.792 45.67c33.824 16.16 64.736 25.6 94.464 28.44l11.264 1.25a450.719 450.719 0 0 0 48 3.62 89.91 89.91 0 0 0 28.8-3.62 45.485 45.485 0 0 0 15.52-10.75c5.504-5.12 10.72-9.95 18.56-11.42 1.52-.29 3.062-.43 4.608-.42 4.279.18 8.512.95 12.576 2.3a44.924 44.924 0 0 0 12.576 2.34c2.238 0 4.467-.3 6.624-.9 7.072-1.95 13.12-7.74 18.944-13.34a63.9 63.9 0 0 1 14.944-11.81 53.904 53.904 0 0 1 22.016-6.21c6.4 0 10.752 2.47 12.032 6.98 2.016 7.04-3.904 19.65-21.696 30.62a37.44 37.44 0 0 1-20.256 4.8c-2.624 0-5.28 0-7.872-.22-2.592-.22-5.056-.26-7.488-.26-5.871-.33-11.717 1-16.864 3.84-5.92 3.75-10.432 13.12-14.784 22.24a95.963 95.963 0 0 1-7.744 14.28c-21.888 29.82-23.232 61.95-18.496 100.96a316.164 316.164 0 0 0 7.776 39.52h1.024a308.594 308.594 0 0 1-7.68-39.62c-4.704-38.82-3.392-70.72 18.336-100.29a97.976 97.976 0 0 0 7.84-14.43c4.288-8.86 8.704-18.27 14.4-21.66zM501.569 194.977c-5.504 0-13.28 3.488-18.976 20.224-6.4 18.816 5.952 23.2 19.04 27.808 2.304.832 4.704 1.664 6.976 2.592a36.61 36.61 0 0 0 12.8 3.2 8.772 8.772 0 0 0 8.064-3.808c4.896-7.744-2.944-24.928-6.56-32-5.696-11.392-13.728-18.016-21.344-18.016zm26.688 49.12c-2.56 4.064-9.024 4.032-19.2 0-2.336-.928-4.736-1.76-7.04-2.592-12.8-4.544-24-8.48-18.08-25.792 4.288-12.512 10.336-19.2 17.472-19.2 7.136 0 14.496 6.4 20.032 17.12 7.424 14.208 9.76 25.568 6.816 30.464z"/><path d="m86.4 719.71 4.32-5.12c20.608-24.224 41.92-49.28 17.696-79.264-18.72-23.168-46.976-42.272-71.904-59.136-5.088-3.392-9.952-6.784-14.752-10.112-3.2-2.24-7.616-5.44-12.8-9.12L0 550.398v1.184l8.512 6.208c5.088 3.712 9.6 6.88 12.8 9.12 4.832 3.36 9.6 6.656 14.88 10.144 24.864 16.832 53.088 35.904 71.712 58.944 23.712 29.344 2.656 54.112-17.664 78.048a308.66 308.66 0 0 0-4.352 5.12C68 740.478 45.152 769.054 27.072 800.83A340.135 340.135 0 0 0 0 861.15v3.2a335.735 335.735 0 0 1 27.776-63.072c18.016-31.744 40.832-60.256 58.624-81.568zM520.418 1434.66a40.552 40.552 0 0 0-6.112-12.29c-3.552-5.34-6.592-9.95-5.376-18.72 1.664-11.93 16-41.44 31.744-41.44h.448c7.808.29 12.8 2.27 14.752 5.86 3.584 6.56-2.912 17.69-8.128 26.62a45.114 45.114 0 0 0-5.728 11.75 13.543 13.543 0 0 0 3.872 11.48 12.084 12.084 0 0 1 3.488 7.91 18.368 18.368 0 0 1-6.4 13.66l-.448.48h1.312a18.874 18.874 0 0 0 4.813-6.35 18.925 18.925 0 0 0 1.779-7.76 12.801 12.801 0 0 0-3.712-8.54 12.913 12.913 0 0 1-3.082-4.95 12.838 12.838 0 0 1-.566-5.81 46.045 46.045 0 0 1 5.6-11.39c5.344-9.15 12-20.51 8.128-27.58-2.176-3.94-7.264-6.02-15.552-6.4h-.448c-16 0-31.008 30.08-32.704 42.27-1.248 9.12 2.048 14.11 5.536 19.39a39.545 39.545 0 0 1 5.984 11.97c.48 1.67.802 3.39.96 5.12h.96a27.054 27.054 0 0 0-1.12-5.28zM68.256 395.845c24.32 12.48 44.992 18.272 65.024 18.272 20.992 0 39.648-6.4 61.248-13.6 12.256-4.128 26.144-8.832 41.92-12.8a79.95 79.95 0 0 1 19.488-2.24c3.2 0 5.984 0 8.8.256 2.816.256 5.216.192 7.744.192 12.8 0 23.264-3.2 34.56-18.336A87.116 87.116 0 0 0 320 342.405c3.776-10.496 6.752-18.784 23.328-30.656a79.132 79.132 0 0 1 16.32-7.744c9.6-3.744 17.664-6.976 18.016-12.416.256-4.416-4.896-9.376-16.224-15.52-13.568-7.392-32.96-8.384-50.144-8.384-7.648 0-15.68.224-23.456.48s-16 .448-23.648.448a149.85 149.85 0 0 1-39.168-3.968c-55.68-15.04-107.904-43.84-153.952-69.024C46.88 182.405 23.424 169.605 0 158.469v1.792c23.168 10.944 46.368 23.648 70.4 36.768 46.144 25.312 98.432 53.984 154.304 69.184a153.173 153.173 0 0 0 39.584 3.904c7.776 0 16-.224 23.68-.448s15.808-.48 23.424-.48c16.992 0 36.096.96 49.376 8.16 10.432 5.696 15.616 10.4 15.392 14.048-.288 4.448-8.416 7.616-17.024 11.008a80.604 80.604 0 0 0-16.736 8c-16.992 12.128-20.192 21.056-23.904 31.392a86.714 86.714 0 0 1-12.8 24.896c-10.912 14.72-20.832 17.664-33.28 17.664-2.496 0-4.992 0-7.68-.192-2.688-.192-5.728-.16-8.736-.16a80.779 80.779 0 0 0-19.904 2.304c-15.808 3.968-29.728 8.672-42.016 12.8-21.472 7.232-40 13.504-60.8 13.504-19.776 0-40.192-5.76-64.288-18.08C46.976 383.141 27.168 368.005 8 353.605l-8-6.048v2.016l7.04 5.312c19.2 14.56 39.072 29.632 61.216 40.96zM846.977 1395.45a18.85 18.85 0 0 0-7.104-1.02c-18.56 0-57.888 11.07-58.304 11.2a324.784 324.784 0 0 0-13.024 4c-21.76 7.23-37.856 16.89-49.568 30.37h1.248c11.584-13.03 27.392-22.4 48.64-29.48 4.224-1.37 8.576-2.72 12.992-3.96.384 0 39.584-11.17 58.016-11.17 2.278-.12 4.557.2 6.72.93 7.136 3.2 4.512 11.16-1.216 28.8-1.376 4.25-2.976 9.24-4.608 14.78h.992c1.632-5.41 3.2-10.3 4.544-14.46 5.728-17.7 8.608-26.6.672-29.99z"/><path d="M803.554 1424.26a60.734 60.734 0 0 0-16 2.62 253.65 253.65 0 0 0-12.064 3.71 118.503 118.503 0 0 0-21.568 9.41h3.36c6.02-3.15 12.293-5.79 18.752-7.9a290.82 290.82 0 0 1 12-3.68 58.81 58.81 0 0 1 15.52-2.56c8 0 12.8 2.91 14.368 8.67.429 1.79.591 3.63.48 5.47h1.6c.116-1.98-.057-3.96-.512-5.89-1.216-4.48-4.992-9.85-15.936-9.85z"/><path d="M904.064 1371.36c-2.784-5.6-12.384-7.58-29.568-6.14a517.897 517.897 0 0 0-98.944 18.85c-4.8 1.34-9.6 2.78-14.048 4.32-32.544 10.78-55.264 27.36-70.016 51.61h1.12c14.688-23.77 37.12-40.06 69.184-50.72 4.544-1.5 9.248-2.94 14.016-4.29a517.448 517.448 0 0 1 98.752-18.81c3.52-.32 6.752-.45 9.6-.45 10.752 0 16.992 1.98 19.04 6.08 3.552 7.17-6.4 20.51-16.256 33.38-1.696 2.3-3.424 4.57-5.12 6.84A298.108 298.108 0 0 0 863.68 1440h1.088a306.208 306.208 0 0 1 17.824-27.39c1.696-2.27 3.424-4.54 5.12-6.85 10.4-13.76 20.192-26.56 16.352-34.4z"/><path d="M936.384 1387.84c14.752-13.89 20.672-24.83 17.6-32.61-3.68-9.25-19.936-13.92-48.384-13.92-9.6 0-20.256.51-32.96 1.57a541.156 541.156 0 0 0-103.168 19.62 376.318 376.318 0 0 0-15.04 4.6c-42.656 14.18-71.488 37.7-88.448 72.9h1.088c16.896-34.66 45.44-57.95 87.68-71.97 4.896-1.63 9.92-3.2 14.976-4.61A540.55 540.55 0 0 1 872.704 1344c12.8-1.06 23.456-1.57 32.896-1.57 28 0 43.968 4.48 47.488 13.31 2.912 7.36-2.944 17.99-17.376 31.56-2.912 2.72-5.696 5.37-8.064 7.74a290.434 290.434 0 0 0-27.712 30.4c-3.552 4.8-6.88 9.6-10.144 14.72h1.152c3.2-4.8 6.4-9.6 9.76-14.14a286.165 286.165 0 0 1 27.648-30.31c2.336-2.53 5.12-5.15 8.032-7.87zM83.008 367.07a152.375 152.375 0 0 0 70.88 18.016c13.472 0 42.528-5.504 67.904-14.688 22.208-8.064 48.704-21.44 48.736-39.424 0-21.184-40.832-32.96-65.28-40-5.312-1.536-9.92-2.848-12.8-3.968A958.875 958.875 0 0 1 55.52 223.998c-18.88-10.4-37.344-20.512-55.52-29.6v1.088c18.016 9.024 36.32 19.2 55.072 29.312A960.42 960.42 0 0 0 192 287.998c3.2 1.152 7.712 2.464 13.056 4 24.192 6.944 64.672 18.592 64.608 39.072 0 31.104-87.808 53.152-115.744 53.152a151.933 151.933 0 0 1-70.4-17.888c-19.552-10.016-38.208-24.192-56.288-37.888-8.736-6.624-17.728-13.44-27.136-20.064v1.184c9.184 6.4 17.984 13.152 26.56 19.648C44.8 342.846 63.36 357.022 83.008 367.07z"/><path d="M93.216 347.131a130.592 130.592 0 0 0 60.8 15.552c17.728 0 40.928-5.248 49.824-16.8a19.204 19.204 0 0 0 3.2-17.536c-4.032-15.52-36.544-26.464-60.256-34.496-7.68-2.592-14.304-4.832-18.368-6.72-27.424-12.8-54.4-27.584-80.8-41.984l-2.912-1.6c-15.232-8.32-30.08-16.352-44.704-24v1.056c14.464 7.488 29.152 15.552 44.16 23.776l2.944 1.6c26.24 14.4 53.408 29.216 80.896 42.016 4.128 1.888 10.784 4.128 18.464 6.752 22.208 7.488 55.744 18.816 59.648 33.824a18.34 18.34 0 0 1-3.2 16.672c-8.672 11.328-31.52 16.352-49.088 16.352a130.012 130.012 0 0 1-60.192-15.424c-17.792-8.992-35.68-22.56-52.96-35.776C28.16 301.019 14.72 290.843 0 281.243v1.152c14.496 9.6 27.744 19.52 40.096 28.8 17.312 13.216 35.232 26.784 53.12 35.936zM567.937 19.2c1.6-6.4 3.2-12.8 4.64-19.2h-1.664c-1.44 6.208-2.976 12.448-4.544 18.784-2.944 11.872-5.984 24.128-8.448 36.672-8.192 41.76-15.264 96.48 3.2 149.632 7.424 21.6 25.92 39.232 42.24 54.784 14.56 13.856 27.104 25.824 25.952 35.872-.512 4.64-3.872 8.736-10.304 12.576a31.452 31.452 0 0 1-15.072 2.656c-24.576 0-67.904-10.848-99.968-21.6-35.04-11.68-77.984-30.176-84.768-52.576-2.144-7.104-.384-14.272 5.184-21.344a330.639 330.639 0 0 1 22.176-24.704c14.56-15.136 28.32-29.44 37.408-50.656a132.635 132.635 0 0 0 4.704-93.856c-2.4-7.744-4.8-14.88-6.944-21.184-3.2-9.312-5.856-17.44-7.744-24.992h-1.664c1.888 7.712 4.704 16 7.904 25.6 2.112 6.4 4.512 13.408 6.912 21.152a130.943 130.943 0 0 1-4.64 92.8c-8.96 20.96-22.624 35.2-37.088 50.208-7.424 7.712-15.104 15.712-22.4 24.8-5.888 7.488-7.744 15.168-5.44 22.816 6.848 22.976 50.272 41.888 85.504 53.696 32.192 10.784 75.712 21.664 100.48 21.664a32.569 32.569 0 0 0 16-2.88c6.912-4.096 10.528-8.608 11.104-13.76 1.216-10.848-11.584-23.072-26.432-37.216-16.192-15.424-34.56-32.928-41.856-54.144-18.144-52.8-11.136-107.264-2.976-148.832 2.56-12.704 5.6-24.96 8.544-36.768zM302.817 767.622c-1.6 2.624-3.2 5.152-4.416 6.976-16.192 22.816-35.2 43.04-56.896 65.248a1166.244 1166.244 0 0 1-8.928 9.056c-17.792 17.984-36.224 36.575-47.232 58.559-4.256 8.544-5.568 15.2-3.808 19.2a6.392 6.392 0 0 0 4.064 3.681c.887.237 1.801.355 2.72.352a32.002 32.002 0 0 0 15.136-5.505 349.431 349.431 0 0 0 33.952-24.575c8.992-7.008 18.272-14.208 27.744-20.608 38.4-25.376 63.648-42.144 75.456-89.6 2.464-9.824 3.904-32.192-3.68-41.888a11.685 11.685 0 0 0-10.272-4.737c-9.856.672-17.92 14.049-23.84 23.841zm24.576-22.72a10.68 10.68 0 0 1 8.768 4.352c7.392 9.6 5.952 31.424 3.52 41.056-11.744 46.976-36.928 63.68-75.04 88.928-9.6 6.4-18.752 13.6-27.68 20.608a342.636 342.636 0 0 1-33.888 24.511c-7.168 4.352-13.28 6.177-17.088 5.057a5.308 5.308 0 0 1-3.552-3.2c-1.632-3.712-.288-10.272 3.776-18.4 10.944-21.856 29.312-40.385 47.072-58.337l8.896-9.055c21.6-22.4 40.8-42.496 57.024-65.344 1.312-1.888 2.848-4.416 4.448-7.072 5.792-9.6 13.696-22.72 23.04-23.2l.704.096z"/><path d="M103.264 327.492a103.113 103.113 0 0 0 37.312 9.12c3.656.239 7.306-.56 10.528-2.304 5.088-3.2 7.328-6.4 6.848-9.6-1.024-6.72-15.712-10.784-27.488-14.08a89.883 89.883 0 0 1-11.424-3.424c-28.064-13.024-55.552-28.096-82.08-42.656l-2.944-1.6C22.4 256.58 11.168 250.372 0 244.484v1.92c10.912 5.792 21.984 11.872 33.248 18.048l2.944 1.6c26.56 14.432 54.048 29.536 82.208 42.592a89.401 89.401 0 0 0 11.68 3.68c10.72 3.008 25.6 7.072 26.336 12.8.352 2.336-1.728 4.992-6.144 7.84a17.854 17.854 0 0 1-9.6 2.048A103.282 103.282 0 0 1 104 326.084c-16-8.224-33.088-21.152-49.6-33.664A589.234 589.234 0 0 0 0 254.5v1.888A592.772 592.772 0 0 1 53.472 293.7c16.544 12.544 33.664 25.536 49.792 33.792zM55.232 936.162c3.84-82.944 60.992-148.32 106.912-200.832l3.616-4.16c54.624-62.496 52.416-84.352 26.784-109.632a990.94 990.94 0 0 0-132.32-110.944C39.744 496.418 19.52 483.426 0 471.906v1.856a987.348 987.348 0 0 1 59.296 38.144A989.75 989.75 0 0 1 191.424 622.69c24.896 24.544 26.912 45.888-26.848 107.456l-3.616 4.128c-46.112 52.704-103.488 118.4-107.328 201.824C50.016 1014.4 20.512 1037.47 0 1043.94v1.66c20.992-6.37 51.552-29.5 55.232-109.438zM982.59 1343.3c-9.408-20.04-47.424-24.26-77.632-24.26-10.624 0-22.112.51-34.176 1.5a566.98 566.98 0 0 0-107.424 20.26 392.43 392.43 0 0 0-16 4.93c-33.28 11.04-58.88 27-78.272 48.83a155.188 155.188 0 0 0-27.68 45.44h1.024c18.496-45.7 52.64-75.78 105.248-93.25 5.184-1.7 10.56-3.36 16-4.9a565.13 565.13 0 0 1 107.168-20.25c12.032-.99 23.52-1.5 34.112-1.5 29.952 0 67.552 4.12 76.8 23.71 10.08 21.47-14.4 44.48-30.592 59.71-2.784 2.59-5.376 5.02-7.552 7.23-9.166 8.69-17.72 18-25.6 27.87l-1.056 1.48h1.184l.64-.9a274.496 274.496 0 0 1 25.6-27.78c2.176-2.17 4.768-4.64 7.52-7.2 16.256-15.42 41.024-38.84 30.688-60.92zM323.36 1291.62c-14.24-3.65-29.568-3.9-44.352-4.13-8.544 0-17.376-.25-25.792-1.05a313.78 313.78 0 0 1-108.8-29.32 820.251 820.251 0 0 1-83.936-46.78 42.57 42.57 0 0 0-22.08-7.14c-13.408 0-27.232 8.77-38.4 23.4v1.6c11.04-15.01 24.928-24.04 38.4-24.04a41.43 41.43 0 0 1 21.76 6.98 827.395 827.395 0 0 0 84.064 46.82 314.957 314.957 0 0 0 108.96 29.4c8.48.8 17.312.93 25.888 1.06 14.72.22 29.984.48 44.096 4.1 22.016 5.66 21.216 21.72 18.08 40.57-3.712 22.4-6.816 44.8-3.744 70.08a327.708 327.708 0 0 0 6.816 36.8h.992a328.693 328.693 0 0 1-6.848-36.93c-3.2-25.18 0-47.39 3.744-69.79 3.008-18.59 3.904-35.77-18.848-41.63zM408.448 27.68c21.92 68.288 30.848 105.408-23.584 136.864A102.405 102.405 0 0 1 354.72 176a146.769 146.769 0 0 1-30.688 3.008c-101.152 0-240-84.544-314.784-129.952l-2.56-1.536L0 43.296v1.888l5.856 3.552 2.56 1.568C83.2 95.808 222.432 180.48 324.032 180.48c10.414.068 20.806-.95 31.008-3.04a104.917 104.917 0 0 0 30.624-11.52c55.488-32 46.496-69.632 24.288-138.72-2.816-8.768-5.728-17.888-8.384-27.2H400c2.592 9.6 5.568 18.784 8.448 27.68z"/><path d="M280.702 17.92c.64 2.432 1.536 5.376 2.56 8.704 2.88 9.6 2.368 15.84-1.536 18.976a13.31 13.31 0 0 1-8.48 2.368c-15.616 0-41.6-13.952-50.176-18.528-4.16-2.24-7.328-3.904-9.792-5.152l-13.12-6.4a1440.12 1440.12 0 0 1-35.2-17.824h-2.048c11.872 6.4 24.16 12.512 36.768 18.688l13.12 6.4c2.464 1.248 5.6 2.912 9.6 5.152 8.608 4.608 34.752 18.624 50.624 18.624 3.237.2 6.444-.714 9.088-2.592 4.224-3.392 4.864-10.112 1.856-20-1.024-3.2-1.92-6.4-2.56-8.672-1.312-5.792-3.008-11.648-4.32-17.664h-.992c1.472 6.112 3.04 12.064 4.608 17.92z"/><path d="M378.272 37.376c8.896 27.648 17.376 62.336 4.096 85.216-6.4 11.36-18.08 18.848-34.24 22.4a116.57 116.57 0 0 1-24.064 2.304C231.744 147.2 97.728 65.664 25.6 21.856l-13.184-8.064C8.352 11.328 4.192 9.024 0 6.848v1.088c4.032 2.112 8 4.32 11.936 6.688l13.28 8.064C97.28 66.528 231.488 148.16 324.064 148.16c8.145.073 16.275-.71 24.256-2.336 16.416-3.488 28.16-11.136 34.88-22.752 13.472-23.232 4.928-58.144-4-86.016C375.36 25.12 371.552 12.8 368.32 0h-1.024c3.296 12.8 7.104 25.344 10.976 37.376z"/><path d="M302.369 12.16c.576 2.176 1.376 4.864 2.336 7.936 4.64 15.232 11.648 38.4 5.024 48.864a18.84 18.84 0 0 1-12.48 8.384c-2.449.534-4.95.791-7.456.768-23.36 0-58.464-18.816-77.312-28.8-3.648-1.952-6.816-3.648-9.184-4.832l-1.696-.96-5.184-2.56-6.176-3.2C164.833 25.6 140.609 12.8 118.401 0h-1.952c22.72 12.96 47.424 26.048 73.6 38.784l6.176 3.2 5.152 2.56 1.664.832a371.63 371.63 0 0 1 9.152 4.832c18.912 10.144 54.144 29.024 77.76 29.024 2.58.022 5.156-.235 7.68-.768a19.881 19.881 0 0 0 12.768-8.992c7.008-10.976 0-34.272-4.8-49.664-.928-3.2-1.728-5.728-2.304-7.872C302.241 8 301.185 4.032 300.097 0h-.992c1.12 4.096 2.176 8.16 3.264 12.16z"/><path d="M324.001 6.4c4.544 17.088 9.248 34.72 9.6 52.96.64 23.552-8.544 37.024-27.264 40.064-2.996.46-6.024.685-9.056.672-32.544 0-79.104-23.232-104.128-35.712l-6.72-3.2-6.176-3.008C141.505 38.976 105.409 19.2 74.433 0H72.61c31.328 19.456 67.904 39.552 107.392 58.912l6.176 3.008 6.688 3.2c25.088 12.64 71.808 35.936 104.736 35.936a58.934 58.934 0 0 0 9.184-.672c19.2-3.2 28.8-16.96 28.096-41.056-.512-18.336-5.216-36.032-9.792-53.184-.704-2.016-1.248-4.096-1.888-6.144h-.992c.672 2.144 1.216 4.288 1.792 6.4z"/><path d="M356.96 44.225c.448 1.44.928 2.912 1.44 4.384 5.088 15.584 10.4 31.68 1.856 47.2a57.252 57.252 0 0 1-36.8 26.784c-1.568.32-3.2.608-4.672.768-3.941.454-7.905.678-11.872.672-42.976 0-93.376-24.768-130.176-42.848l-6.176-3.04C123.296 55.009 77.632 27.233 37.344 2.72L32.864 0h-1.856l5.824 3.552c40.32 24.512 85.984 52.288 133.312 75.456l6.176 3.04c36.864 18.112 87.392 42.944 130.592 42.944 4.009.007 8.016-.217 12-.672 1.568-.192 3.2-.448 4.768-.8a58.302 58.302 0 0 0 37.408-27.232c8.736-16 3.392-32.224-1.792-48l-1.44-4.416c-4.512-14.016-8.928-28.8-12.608-43.904h-.992c3.712 15.328 8.16 30.144 12.704 44.256zM322.112 714.338c-14.048 3.488-26.304 22.912-36.192 38.4-3.424 5.472-6.688 10.624-9.6 14.304a679.008 679.008 0 0 1-51.2 56.832c-4.512 4.64-10.208 9.92-16.224 15.488-17.856 16.544-40.064 37.12-46.816 55.968-5.664 16-2.336 30.976.896 45.6 2.656 12 5.408 24.384 3.2 37.28-1.344 8-6.176 16-11.296 24.19-6.144 9.99-12.48 20.29-12.8 31.39-.129 3.77.457 7.53 1.728 11.08 4.224 11.84 8.64 17.37 13.888 17.37 5.248 0 10.848-5.41 19.2-18.62 8-12.64 11.136-27.27 14.176-41.44 3.04-14.178 6.208-28.802 14.272-41.602 15.36-24.192 42.432-42.048 66.304-57.76l5.984-3.968c39.68-26.272 70.976-47.008 84.96-102.912 3.712-14.784 2.72-52.48-12.32-71.744a25.758 25.758 0 0 0-28.16-9.856zm26.976 10.976c13.472 17.28 16 53.792 12.032 70.4-13.824 55.296-44.8 75.872-84.32 101.984l-5.952 3.936c-24.032 15.808-51.2 33.76-66.784 58.24-8.224 12.96-11.392 27.776-14.496 42.146-3.104 14.37-6.112 28.38-13.952 40.86-5.6 8.83-12.096 17.89-17.856 17.89-4.416 0-8.48-5.34-12.384-16.32a27.329 27.329 0 0 1-1.632-10.5c.352-10.65 6.592-20.8 12.608-30.59 5.216-8.446 10.144-16.446 11.552-24.766 2.208-13.184-.576-25.76-3.2-37.888-3.2-15.072-6.4-29.28-.96-44.8 6.624-18.464 28.8-38.912 46.4-55.36 6.048-5.568 11.744-10.848 16.288-15.52a682.847 682.847 0 0 0 51.2-56.96c2.912-3.744 6.176-8.96 9.6-14.432 9.6-15.392 21.792-34.528 35.2-37.824a29.067 29.067 0 0 1 7.04-.896 24.199 24.199 0 0 1 19.616 10.4z"/><path d="M336.83 644.869a28.987 28.987 0 0 0-21.248-13.888 34.954 34.954 0 0 1-15.584-6.4l-.48-.576c-16.32-18.272-71.04-77.856-89.6-77.856a6.015 6.015 0 0 0-5.056 2.304c-2.464 3.2-2.336 9.6.384 19.872 1.632 6.048 17.12 14.336 33.536 23.168 13.664 7.328 27.808 14.912 32.608 20.608 4.288 5.088 9.952 12.16 9.6 14.624 0 .672-.864 1.056-2.112 1.664-2.88 1.44-7.2 3.584-4.896 13.696a72.403 72.403 0 0 0 10.112 20.608 71.304 71.304 0 0 1 9.056 17.888c4.096 15.744-21.696 44.64-38.752 63.744-5.632 6.4-10.496 11.776-13.6 16a437.487 437.487 0 0 1-42.88 46.528c-29.152 28.8-59.296 58.432-69.888 99.424-16.032 61.184-19.232 115.293-9.632 160.733 5.12 24.26 22.784 58.08 39.904 58.08 10.656 0 18.432-12.8 23.072-38.08 17.92-97.373 66.816-129.757 114.08-161.085 41.888-27.744 81.44-53.952 98.464-122.016 6.4-25.6-3.456-65.184-16.288-87.04a68.842 68.842 0 0 0-19.904-20.544 62.593 62.593 0 0 1-16.384-16c-3.2-4.96-2.592-10.752-2.016-16.896.576-6.144 1.376-12.992-2.496-18.56zm2.72 36.576a63.321 63.321 0 0 0 16.928 16.64 67.203 67.203 0 0 1 19.2 19.904c12.608 21.472 22.4 60.224 16 85.376-16.8 67.2-56 93.216-97.536 120.704-47.488 31.584-96.768 64.256-114.944 162.531-4.352 23.71-11.584 36.25-20.864 36.25-14.56 0-32.224-30.27-37.728-56.29-9.6-45.08-6.4-98.875 9.376-159.803 10.432-40.416 40.352-69.888 69.28-98.4a436.336 436.336 0 0 0 43.168-46.752c3.04-4.032 7.872-9.6 13.472-15.712 18.432-20.64 43.648-48.928 39.264-65.792a71.968 71.968 0 0 0-9.344-18.528 71.197 71.197 0 0 1-9.824-19.936c-1.888-8.384 1.088-9.856 3.712-11.168 1.44-.704 2.944-1.472 3.2-3.2.512-2.336-.992-5.92-9.92-16.512-5.056-6.016-19.392-13.728-33.248-21.152-14.56-7.808-31.04-16.672-32.416-21.76-3.2-11.584-2.144-16-.768-17.92a3.817 3.817 0 0 1 3.2-1.44c13.984 0 54.592 39.84 87.936 77.12l.672.704a37.708 37.708 0 0 0 16.576 6.944 26.81 26.81 0 0 1 19.904 12.8c3.2 4.896 2.816 10.752 2.208 16.96-.608 6.208-1.056 12.8 2.496 18.592v-.16z"/><path d="M0 437.15c107.904 61.056 224.192 158.208 245.376 206.496 12.8 28.992-18.112 63.648-57.12 107.52C144 801.022 88.704 863.07 85.28 937.598 81.088 1028.32 36.096 1065.6 0 1076.86v2.37c36.928-11.26 83.2-49.02 87.52-141.568 3.392-73.6 58.304-135.392 102.4-184.992 39.552-44.48 70.784-79.616 57.6-109.92C226.08 594.11 108.8 495.998 0 434.75v2.4zM543.584.192V0h-1.312a25.83 25.83 0 0 0-5.44 7.648c-3.968 9.344-2.848 19.2-1.76 28.512a98.662 98.662 0 0 1 .992 16 174.092 174.092 0 0 1-3.744 25.376c-1.344 6.912-2.752 14.048-3.424 21.024-3.936 42.24-.224 80.64 11.168 113.728 2.368 6.848 11.648 17.44 21.472 28.8 12.544 14.304 25.6 29.152 26.048 38.144.1.871.012 1.753-.258 2.587a6.132 6.132 0 0 1-1.31 2.245c-3.392 3.584-12.48 4.256-27.04 1.952a130.994 130.994 0 0 1-30.56-10.368c-5.728-2.496-11.68-5.088-17.6-7.072l-5.216-1.856c-21.28-7.008-50.432-16.64-54.592-33.472-1.984-8.032 1.92-17.216 11.616-27.296 15.264-16 31.04-32.288 41.6-57.216 10.24-23.904 22.016-70.4 17.504-95.552a32.396 32.396 0 0 0-5.152-12 21.499 21.499 0 0 1-4.224-16.48A27.517 27.517 0 0 1 517.6 12.8 17.334 17.334 0 0 0 521.408 0h-.96a16.424 16.424 0 0 1-3.648 12.224 27.666 27.666 0 0 0-5.184 12.32 22.04 22.04 0 0 0 4.32 17.056 31.393 31.393 0 0 1 5.056 11.68c4.48 24.992-7.264 71.232-17.472 95.008-10.624 24.768-26.368 41.12-41.6 56.928-9.952 10.336-13.92 19.808-11.84 28.192 4.288 17.376 33.728 27.072 55.2 34.176l5.216 1.728c5.856 1.952 11.776 4.544 17.504 7.008a128.944 128.944 0 0 0 30.784 10.432 94.179 94.179 0 0 0 14.688 1.376c6.592 0 10.912-1.184 13.216-3.616a7.134 7.134 0 0 0 1.824-5.536c-.544-9.312-13.632-24.288-26.304-38.72-9.6-11.136-18.944-21.664-21.248-28.352-11.392-33.056-15.072-71.168-10.976-113.376.672-6.912 2.048-14.016 3.424-20.928a179 179 0 0 0 3.744-25.6 100.508 100.508 0 0 0-.992-16c-1.12-9.6-2.176-18.88 1.696-28a26.237 26.237 0 0 1 5.728-7.808zM438.592 17.984c20.256 63.072 41.184 128.288-37.888 173.984a134.746 134.746 0 0 1-39.392 14.912 181.624 181.624 0 0 1-37.28 3.68C217.12 210.56 83.392 131.2 0 80.384v2.624C83.68 133.824 217.024 212.8 324.032 212.8a181.312 181.312 0 0 0 37.728-3.744 137.085 137.085 0 0 0 40.064-15.136c80.64-46.72 59.424-112.704 38.912-176.608C438.88 11.488 437.024 5.728 435.2 0h-2.368c1.888 5.952 3.84 11.936 5.76 17.984zM306.784 1321.95c-11.648-10.79-29.056-11.68-44.416-12.48-3.968-.23-7.68-.42-11.296-.74a334.363 334.363 0 0 1-116.16-31.42 543.901 543.901 0 0 1-76.096-42.79 30.267 30.267 0 0 0-17.216-5.72c-13.12 0-25.6 10.3-33.024 27.52-2.88 6.4-5.696 12.8-8.576 19.2v2.3c3.2-6.94 6.4-13.98 9.6-21.15 7.232-16.99 19.2-27.07 32-27.07 6 .11 11.822 2.06 16.672 5.6a550.257 550.257 0 0 0 76.128 43 335.694 335.694 0 0 0 116.48 31.46c3.648.35 7.36.54 11.328.77 15.2.8 32.448 1.69 43.84 12.22 13.184 12.23 11.328 35.43 9.6 55.87a148.9 148.9 0 0 0-.64 27.36 261.19 261.19 0 0 0 7.296 34.12h.896a258.258 258.258 0 0 1-7.136-34.24c-.627-9.05-.412-18.13.64-27.14 1.76-20.7 3.616-44.22-9.92-56.67zM7.712 1377.5c-2.816-1.12-5.408-2.18-7.712-3.36v1.06c2.272 1.15 4.736 2.14 7.328 3.2 1.376.51 2.752 1.08 4.16 1.66a287.447 287.447 0 0 1 49.504 25.76c16.512 11.14 35.2 22.62 55.392 34.18h2.016c-20.8-11.84-39.936-23.59-56.832-34.98a288.026 288.026 0 0 0-49.696-25.82c-1.44-.61-2.816-1.19-4.16-1.7zM48.48 1424.38c7.616 5.15 15.712 10.37 24.16 15.62h1.792a1257.63 1257.63 0 0 1-25.6-16.39A299.655 299.655 0 0 0 0 1398.4v1.02a302.298 302.298 0 0 1 48.48 24.96z"/><path d="M29.889 666.178c-1.568-10.304-8.672-19.52-21.76-28.192L0 632.578v1.024l7.616 5.056c12.8 8.512 19.808 17.504 21.344 27.552 2.528 16.576-10.08 33.696-25.6 52.736a144.878 144.878 0 0 0-3.392 4.576v1.664c1.504-2.144 2.88-4.064 4.16-5.632 15.648-19.104 28.384-36.384 25.76-53.376zM24.032 1434.65A223.812 223.812 0 0 0 0 1422.08v1.05a229.292 229.292 0 0 1 23.552 12.32l7.456 4.55h1.856l-8.832-5.35zM218.209 3.2c5.984 3.2 14.208 7.2 21.472 7.2a13.598 13.598 0 0 0 7.84-2.208l.544-.416A15.287 15.287 0 0 0 252.801 0h-1.664a13.465 13.465 0 0 1-4.16 6.4l-.448.32a11.903 11.903 0 0 1-6.944 1.952c-6.88 0-14.88-4.064-20.768-7.008-.864-.448-1.696-.896-2.464-1.248L215.425 0h-3.648l3.968 1.952 2.464 1.248zM233.247 1411.2a12.527 12.527 0 0 0-1.12-10.68c-4.704-7.27-17.376-9.12-26.624-10.47l-4.224-.64-2.08-.41a130.035 130.035 0 0 0-22.4-2.98 12.4 12.4 0 0 0-8.832 2.21c-.342.36-.607.79-.777 1.25-.171.47-.244.97-.215 1.47.448 8.29 13.12 13.37 20.704 16.41 1.184.48 2.272.9 3.2 1.32 2.048.86 4.352 2.01 6.816 3.2 7.808 3.9 16.672 8.32 24.256 8.32a20.42 20.42 0 0 0 2.816-.23 10.85 10.85 0 0 0 5.594-3.07 10.834 10.834 0 0 0 2.886-5.7zm-8.896 6.98c-.826.13-1.66.19-2.496.19-7.168 0-15.808-4.32-23.456-8.09-2.464-1.25-4.8-2.4-6.88-3.2-.896-.42-1.984-.84-3.2-1.32-7.168-2.88-19.2-7.71-19.552-14.81a1.665 1.665 0 0 1 .48-1.35c.704-.76 2.592-1.66 7.488-1.66 7.433.34 14.821 1.34 22.08 2.98l2.112.41 4.288.64c8.384 1.25 21.088 3.2 25.344 9.6a10.782 10.782 0 0 1 .896 9.19 9.042 9.042 0 0 1-2.392 4.82 9.083 9.083 0 0 1-4.712 2.6z"/><path d="M295.616 1368.41c1.504-9.41 3.2-19.2-3.2-26.53-7.424-8.83-19.52-9.44-30.208-9.98h-1.12c-3.776-.19-8.096-.42-12.224-.83a356.394 356.394 0 0 1-123.712-33.47c-12.192-5.83-24.16-12.45-35.744-18.88-6.4-3.52-12.8-7.17-19.488-10.66l-.448-.22c-7.68-4.07-15.616-8.29-23.808-8.29a20.915 20.915 0 0 0-11.872 3.58c-13.024 8.45-19.2 24.93-25.312 40.83A183.302 183.302 0 0 1 0 1323.93v1.99c3.721-6.99 6.93-14.25 9.6-21.7 5.984-15.74 12.16-32 24.928-40.35a20.325 20.325 0 0 1 11.36-3.43c7.936 0 15.776 4.16 23.36 8.16l.448.26c6.4 3.46 13.088 7.1 19.456 10.62 11.616 6.4 23.584 13.09 35.808 18.92a357.294 357.294 0 0 0 124.032 33.56c4.16.42 8.48.64 12.288.84h1.088c10.496.51 22.4 1.15 29.536 9.6 5.92 7.07 4.384 16.57 2.88 25.76-.48 2.97-.928 5.76-1.152 8.51a163.506 163.506 0 0 0-.544 31.81 254.26 254.26 0 0 0 6.08 31.52h.992a256.44 256.44 0 0 1-6.4-31.56c-.836-10.53-.654-21.12.544-31.61.384-2.69.832-5.47 1.312-8.42zM58.208 677.021c8.32-23.392 0-32.768-37.728-57.6l-9.056-6.048A774.101 774.101 0 0 0 0 605.469v1.184l10.912 7.424 9.056 6.016c37.152 24.64 45.44 33.856 37.344 56.608-7.328 20.576-21.504 38.048-36.512 56.512-7.008 8.608-14.112 17.376-20.8 26.752v1.632c6.88-9.792 14.272-18.912 21.536-27.808 15.072-18.528 29.28-36.032 36.672-56.768z"/><path d="M253.088 1355.84c-10.112-4.41-21.152-5.47-32-6.4-6.16-.48-12.291-1.28-18.368-2.4a377.564 377.564 0 0 1-87.296-29.18c-12.8-6.11-25.056-12.8-36.96-19.52-1.664-.93-3.648-2.18-5.696-3.49-6.88-4.38-15.424-9.82-23.04-9.82-2.717-.05-5.38.76-7.616 2.3-5.824 4.06-8.576 12.29-11.008 19.55-.608 1.79-1.184 3.52-1.76 5.06-1.56 3.6-3.334 7.1-5.312 10.49-5.312 9.6-11.936 21.67-9.6 28.8 2.336 7.14 11.936 11.3 19.552 14.5 1.728.74 3.36 1.41 4.768 2.08a268.203 268.203 0 0 1 34.848 19.42 971.734 971.734 0 0 0 89.6 52.77h2.048a983.195 983.195 0 0 1-90.976-53.57 266.258 266.258 0 0 0-34.688-19.48c-1.408-.68-3.2-1.38-4.8-2.12-7.456-3.2-16.736-7-19.008-13.88-2.272-6.88 4.256-18.66 9.6-28.16 2.005-3.42 3.8-6.96 5.376-10.6.608-1.56 1.184-3.2 1.792-5.12 2.368-7.1 5.056-15.16 10.624-19.2 2.08-1.42 4.55-2.17 7.072-2.14 7.36 0 15.744 5.38 22.4 9.6 2.112 1.34 4.064 2.59 5.824 3.55 11.616 6.72 23.936 13.6 36.736 19.75a379.218 379.218 0 0 0 87.488 29.28 184.857 184.857 0 0 0 18.464 2.4c10.624 1.02 21.568 2.08 31.552 6.4 17.6 7.71 17.536 22.75 17.44 38.65-.132 5.34.06 10.68.576 16a261.633 261.633 0 0 0 5.376 28.8h.992a255.803 255.803 0 0 1-5.408-28.8 130.14 130.14 0 0 1-.576-15.81c.096-16.35.16-31.77-18.016-39.71z"/><path d="M210.175 1437.44a1070.634 1070.634 0 0 1-123.456-69.83 131.64 131.64 0 0 0-13.76-7.8 97.329 97.329 0 0 1-18.56-11.43c-7.584-6.4-9.6-12.8-6.4-20.54.88-2.72 2.627-5.08 4.974-6.71a13.087 13.087 0 0 1 8.018-2.32c10.336 0 24.16 8.39 34.208 14.53 4 2.4 7.424 4.48 10.112 5.76a397.218 397.218 0 0 0 92.8 31.04c6.889 1.3 13.843 2.23 20.832 2.79l3.584.28c8.032.64 17.12 1.38 22.4 7.33 5.28 5.95 5.952 18.11 6.4 27.87 0 2.69.224 5.25.416 7.46v1.22c.608 6.4 1.472 16-.832 22.91h1.888c2.208-7.23 1.344-16.64.768-23.07v-1.19c-.192-2.21-.288-4.73-.416-7.39-.416-10.02-.96-22.4-6.784-28.8-5.824-6.4-15.296-7.2-23.616-7.87l-3.584-.29a191.15 191.15 0 0 1-20.64-2.75 397.96 397.96 0 0 1-92.448-31.04c-2.592-1.25-6.016-3.2-9.952-5.7-10.208-6.24-24.256-14.75-35.04-14.75-3.169-.12-6.29.8-8.897 2.6a14.713 14.713 0 0 0-5.567 7.42c-3.488 8.41-1.312 15.52 6.784 22.4a99.298 99.298 0 0 0 18.816 11.61c4.681 2.3 9.222 4.88 13.6 7.71a1064.204 1064.204 0 0 0 123.648 69.92l2.304 1.16h3.648l-5.248-2.53zM310.624 797.633h-.224c-4.544 0-9.152 5.792-12.512 9.984-.736.928-1.376 1.728-1.952 2.368-3.2 3.648-6.208 7.456-9.184 11.136a401.063 401.063 0 0 1-5.76 7.136l-.256.256c-6.4 7.584-8.992 12.512-7.968 15.104a3.008 3.008 0 0 0 2.72 1.792h.928c12.8-.256 23.168-11.872 28.224-18.752a54.176 54.176 0 0 0 9.6-19.456 12 12 0 0 0-.768-8.256 3.622 3.622 0 0 0-2.848-1.312zm1.888 9.28a51.914 51.914 0 0 1-9.184 18.688c-4.864 6.656-14.816 17.856-26.944 18.112v.8-.8h-.576c-1.152 0-1.344-.608-1.408-.768-.352-.896-.32-3.968 7.712-13.472l.224-.288c1.984-2.368 3.872-4.768 5.792-7.168 2.944-3.648 5.984-7.456 9.152-11.072.576-.64 1.248-1.472 1.984-2.4 2.976-3.744 7.488-9.408 11.424-9.408a1.79 1.79 0 0 1 1.472.736 9.989 9.989 0 0 1 .352 7.04z"/><path d="M648.225 1121.83c42.464-4.83 88-54.02 88.576-95.68.896-64.002-35.808-114.914-71.328-164.258-6.048-8.352-12.288-17.024-18.176-25.6l-3.52-5.12c-16.736-24.064-35.68-51.2-41.824-80.832-5.216-24.992-13.184-83.2-4.512-103.232 6.4-14.688 24.48-23.104 41.984-31.264 12.096-5.6 23.552-10.912 31.584-18.208l.352-.32c27.456-24.896 27.456-24.896 46.176-25.6 5.664-.192 12.8-.416 22.656-1.376a166.877 166.877 0 0 0 26.976-4.608 38.82 38.82 0 0 1 8.672-1.536c5.76 0 10.592 4.064 26.56 17.6 47.2 39.968 46.304 109.472 45.44 176.704-1.088 84.576-2.208 172.064 93.536 199.744a144.298 144.298 0 0 0 39.84 5.984c36.003 0 66.623-16 88.613-46.496 32.25-44.608 40.83-114.272 21.34-173.312-45.02-136.256-152.609-214.176-268.353-288.416-105.152-67.488-205.344-86.08-290.976-98.208a128.148 128.148 0 0 0-17.536-1.312c-34.72 0-51.2 17.664-72.128 40a363.956 363.956 0 0 1-26.56 26.464c-11.776 10.336-26.752 17.44-41.216 24.288-23.616 11.168-45.92 21.696-55.136 45.152-19.552 49.76 28.48 88.512 70.88 122.72 19.616 16 38.144 30.816 48.992 45.76 43.072 59.264 30.176 159.2-8.864 215.36-12.192 17.504-35.552 39.2-60.256 62.144-40.96 38.016-87.392 81.118-95.584 117.308-3.872 17.06-2.848 28.8 3.2 36.36 4.96 6.2 13.312 9.21 25.6 9.21 20.128 0 48.96-8.29 79.456-17.09 37.28-10.72 79.552-22.88 115.584-22.88a103.508 103.508 0 0 1 43.488 8.2 187.16 187.16 0 0 1 37.024 24.28c18.784 14.6 36.512 28.39 61.6 28.39 2.617.02 5.234-.08 7.84-.32zm-106.016-53.7a105.213 105.213 0 0 0-44.16-8.32c-36.288 0-78.656 12.19-116.032 22.95-30.4 8.76-59.104 17.02-79.008 17.02-11.68 0-19.616-2.82-24.256-8.61-5.6-7.04-6.4-18.46-2.784-34.97 8.096-35.75 54.4-78.66 95.136-116.516 24.768-23.008 48.192-44.8 60.48-62.432 39.36-56.576 52.32-157.376 8.864-217.216-10.976-15.104-29.6-30.144-49.312-46.048-41.952-33.856-89.6-72.224-70.4-120.896 8.992-22.848 31.008-33.28 54.4-44.288 14.592-6.912 29.664-14.016 41.6-24.512a372.932 372.932 0 0 0 26.656-26.56c20.64-22.08 36.96-39.52 70.976-39.52 5.795.019 11.581.457 17.312 1.312 85.472 12.096 185.6 30.656 290.368 97.952 115.456 74.08 222.821 151.808 267.651 287.584 19.36 58.56 10.88 127.648-21.09 171.872-21.66 29.984-51.87 45.824-87.329 45.824a142.502 142.502 0 0 1-39.456-5.952c-42.432-12.288-69.248-37.472-82.048-77.024-11.424-35.456-10.88-79.04-10.336-121.184.864-67.584 1.76-137.6-46.016-177.92-22.848-19.36-23.456-19.648-36.64-16.384a164.636 164.636 0 0 1-26.72 4.576c-9.92.928-16.928 1.152-22.56 1.344-19.2.672-19.2.672-47.2 25.952l-.384.32c-7.84 7.104-19.2 12.384-31.168 17.952-17.792 8.256-36.192 16.832-42.784 32-8.832 20.448-.832 79.008 4.416 104.16 6.208 29.792 25.248 57.216 42.08 81.44l3.52 5.088c5.888 8.544 12.128 17.216 18.176 25.6 35.2 49.12 71.936 99.936 71.04 163.196-.576 41-45.376 89.35-87.168 94.12-2.614.29-5.242.44-7.872.44-24.544 0-42.08-13.6-60.608-28.03-11.456-8.7-23.296-17.92-37.344-24.32zM1440 6.848c-4.8-2.464-9.6-4.768-14.69-6.848h-2.62c5.92 2.4 11.68 5.024 17.31 7.936V6.848zM1396.45 629.055c-1.6-1.184-4.13-3.36-7.3-6.144-12.19-10.592-32.57-28.384-46.91-28.384-2.65-.063-5.26.675-7.49 2.12a13.14 13.14 0 0 0-4.99 5.976c-3.36 6.752 4 22.4 8.86 32.672 1.19 2.528 2.21 4.704 2.85 6.4 1.31 3.2 2.5 6.208 3.52 8.832a538.77 538.77 0 0 1 19.04 56.128c.55 2.08 1.06 4.416 1.63 6.912 2.37 10.656 5.35 23.904 12.8 30.4a22.627 22.627 0 0 0 8.29 4.96c1.15.35 2.35.533 3.55.544 8.71 0 14.69-9.888 20.48-19.456 1.32-2.176 2.69-4.416 4.04-6.4l1.31-1.984c22.05-33.568 35.36-53.824-5.19-81.984-4.03-2.848-9.15-6.688-14.49-10.592zm18.24 91.488-1.28 1.952c-1.38 2.112-2.75 4.384-4.1 6.56-5.53 9.184-11.29 18.688-19.2 18.688a10.82 10.82 0 0 1-3.2-.48 21.148 21.148 0 0 1-7.68-4.64c-6.97-6.144-9.89-19.2-12.22-29.504-.55-2.528-1.09-4.896-1.63-7.008a529.319 529.319 0 0 0-19.2-56.288 562.136 562.136 0 0 0-3.56-8.832c-.67-1.632-1.69-3.84-2.88-6.4-4.44-9.44-11.87-25.248-8.86-31.296a11.592 11.592 0 0 1 4.39-5.329c1.98-1.287 4.3-1.94 6.65-1.871 13.76 0 33.86 17.536 45.86 28 3.2 2.784 5.72 4.992 7.42 6.4 5.34 3.904 10.46 7.616 14.43 10.368 39.55 27.136 26.56 46.912 5.06 79.68z"/><path d="M1422.69 593.15c-7.07-5.152-14.11-10.912-21.57-17.024-22.82-18.624-48.67-39.712-71.9-39.712-4.54-.004-9.05.831-13.28 2.464-41.03 15.488-35.2 58.88-28 83.2 4.38 14.944 10.04 29.76 15.52 44.064a496.913 496.913 0 0 1 17.53 51.488 257.812 257.812 0 0 1 5.51 32.544c4.12 33.12 8.03 64.384 52.19 64.384 3.49 0 7.26-.192 11.2-.576 4.34-.35 8.63-1.165 12.8-2.432 11.74-3.776 15.26-10.88 20.57-21.664 1.6-3.2 3.43-6.976 5.7-10.944 3.39-5.962 7.07-11.75 11.04-17.344v-1.664a222.269 222.269 0 0 0-12 18.656c-2.27 4-4.1 7.712-5.73 10.976-5.21 10.56-8.64 17.536-20 21.216a60.977 60.977 0 0 1-12.48 2.368c-3.9.384-7.65.576-11.1.576-43.33 0-46.98-29.44-51.2-63.552-1.13-11-2.98-21.914-5.54-32.672a504.429 504.429 0 0 0-17.57-51.584c-5.47-14.304-11.13-29.056-15.48-43.968-7.08-24.192-12.8-66.976 27.39-82.208a35.75 35.75 0 0 1 12.96-2.4c22.91 0 48.61 20.992 71.29 39.52 7.46 6.08 14.53 11.84 21.6 17.024 5.35 3.904 10.05 7.328 13.57 9.76l4.32 2.976v-1.184l-3.77-2.592c-3.56-2.4-8.26-5.824-13.57-9.696zM1397.41 1308a665.81 665.81 0 0 1-43.65 58.82c-.7.9-1.47 1.79-2.27 2.72-5.76 6.75-12.8 15.17-7.87 23.62 4.92 8.44 18.88 9.82 29.12 11l5.02.68a236.44 236.44 0 0 1 62.24 18.3v-1.06a238.327 238.327 0 0 0-62.11-18.2c-1.47-.23-3.2-.42-5.06-.64-10.01-1.19-23.74-2.82-28.38-10.56-4.64-7.75 2.21-16 7.77-22.4l2.31-2.76a672.953 672.953 0 0 0 43.68-58.91c12.51-19.45 21.34-39.61 30.72-60.96 2.98-6.78 6.69-13.22 11.07-19.2v-1.6c-4.78 6.36-8.79 13.25-11.97 20.55-9.34 21.08-18.17 41.21-30.62 60.6zM1055.04 16.862c4.99 16.896 40.74 26.24 63.52 26.24 32.51 0 66.59-6.4 102.69-13.216 36.09-6.816 74.11-13.888 110.78-13.888 40.16 0 73.92 8.608 103.17 26.304l4.8 2.912v-1.856c-1.31-.832-2.69-1.664-4-2.432-29.47-17.856-63.49-26.528-103.97-26.528-36.8 0-74.56 7.104-111.07 13.952-36.51 6.848-70.05 13.248-102.4 13.248-22.78 0-57.41-9.6-61.98-25.088-1.54-5.206.3-10.678 5.53-16.416H1060c-4.9 5.696-6.59 11.328-4.96 16.768zM1324.96 127.777h-23.75c-21.82 0-39.16 1.184-58.33 7.008a176.568 176.568 0 0 0-28.45 12.416c-15.17 7.712-29.47 15.008-46.59 15.008-2.86.005-5.72-.198-8.55-.608-12.64-1.824-22.11-9.28-31.26-16.48-10.27-8.096-19.97-15.744-33.6-15.744a37.97 37.97 0 0 0-3.78.192c-8.38.864-21.85 8.416-34.84 15.744a182.215 182.215 0 0 1-21.89 11.2 151.891 151.891 0 0 1-18.72 5.536c-13.47 3.2-15.17 4.384-21.698 29.152a296.745 296.745 0 0 0-4.384 19.424c-4.704 22.976-8.416 40.992-32.896 58.176-16.544 11.68-37.504 17.344-64 17.344-26.496 0-53.92-5.504-78.24-10.4-12.8-2.528-24.736-4.928-33.632-5.888-5.184-.544-13.184-.896-21.376-.896-23.488 0-51.008 8.608-52.928 20.96-.928 5.824 3.648 14.624 30.592 23.232l2.976.96c102.624 32.896 174.208 75.872 247.072 148.256 20.064 19.968 35.424 29.28 48.284 29.28 3-.001 5.97-.543 8.77-1.6 13.67-5.088 23.62-22.4 35.2-42.304 5.95-10.304 12.8-21.984 20.71-33.248a291.409 291.409 0 0 1 156.16-112 193.422 193.422 0 0 1 52.99-7.84c55.26 0 94.27 27.072 131.2 54.912v-2.016c-36.87-27.744-75.87-54.4-131.2-54.4a195.488 195.488 0 0 0-53.57 7.968 293.064 293.064 0 0 0-157.02 112.704c-8.04 11.296-14.82 23.008-20.77 33.344-11.39 19.712-21.22 36.736-34.34 41.6a23.978 23.978 0 0 1-8.22 1.472c-12.42 0-27.39-9.152-47.17-28.8-73.056-72.576-144.8-115.648-247.68-148.64l-3.008-.96c-20.16-6.4-30.656-14.08-29.504-21.44 1.6-10.272 26.08-19.616 51.36-19.616 8.128 0 16 .352 21.184.896 8.864.928 20.832 3.2 33.504 5.888 24.384 4.768 52.032 10.432 78.56 10.432 26.528 0 48.224-5.76 65.024-17.632 24.992-17.696 28.8-36.096 33.536-59.424 1.28-6.176 2.56-12.544 4.384-19.2 6.4-24.672 7.81-24.992 20.48-28.032a149.265 149.265 0 0 0 18.91-5.568 177.8 177.8 0 0 0 22.11-11.328c12.29-6.88 26.18-14.688 34.24-15.52 1.21-.127 2.41-.191 3.62-.192 13.06 0 22.56 7.488 32.64 15.392 9.31 7.328 18.91 14.912 32 16.8 2.92.418 5.86.632 8.8.64 17.5 0 32.64-7.712 47.3-15.168 9.02-4.93 18.47-9.052 28.22-12.32 18.94-5.76 36.19-6.944 57.86-6.944H1324.99a193.213 193.213 0 0 1 53.47 6.976 405.47 405.47 0 0 1 61.54 23.776v-1.792a408.535 408.535 0 0 0-61.12-23.648 194.235 194.235 0 0 0-53.92-7.04z"/><path d="M1405.34 1334.17c-10.36 12.45-22.11 26.56-21.56 40.07.44 10.4 10.49 12.16 19.39 13.69 2.14.39 4.16.74 6.08 1.19 10.49 2.71 20.77 6.2 30.75 10.43v-1.15c-9.9-4.21-20.11-7.66-30.53-10.34-1.95-.48-3.97-.83-6.14-1.21-8.93-1.54-18.18-3.2-18.59-12.8-.55-13.12 11.07-27.08 21.34-39.4 3.92-4.5 7.58-9.22 10.98-14.14a341.82 341.82 0 0 0 22.94-42.82v-2.3a349.367 349.367 0 0 1-23.74 44.8c-3.38 4.86-7.02 9.53-10.92 13.98zM1423.46 621.277c-3.72-2.56-8.74-6.208-13.99-10.048-7.52-5.504-14.78-11.424-22.4-17.76a275.7 275.7 0 0 1-5.66-4.736c-12.8-10.944-30.56-25.92-46.79-25.92a23.259 23.259 0 0 0-12.38 3.488c-28.06 17.344-11.2 58.816-1.09 83.616 1.22 3.008 2.37 5.856 3.2 8.384a510.435 510.435 0 0 1 18.31 53.824c.92 3.52 1.85 7.68 2.81 12.064 4.48 20.096 10.63 47.648 26.02 57.6a19.727 19.727 0 0 0 7.93 3.04c.83.102 1.67.155 2.5.16 18.82 0 37.57-28.576 51.2-49.472 2.5-3.776 4.74-7.2 6.82-10.176v-1.664c-2.28 3.2-4.8 7.04-7.62 11.328-13.57 20.704-32.16 49.024-50.46 49.024-.8-.005-1.59-.058-2.37-.16a18.437 18.437 0 0 1-7.55-2.88c-15.04-9.6-21.12-37.024-25.6-56.992-1-4.384-1.92-8.544-2.85-12.096a506.932 506.932 0 0 0-18.34-53.92c-.96-2.528-2.11-5.376-3.36-8.384-9.95-24.512-26.65-65.504.74-82.464a22.384 22.384 0 0 1 11.87-3.2c16 0 33.38 14.848 46.18 25.6 2.01 1.728 3.9 3.2 5.69 4.8 7.71 6.4 14.98 12.224 22.4 17.728 5.25 3.84 10.27 7.488 14.02 10.08 4.99 3.456 10.01 6.88 15.42 10.528l1.67 1.12v-1.152l-1.19-.8c-4.99-3.68-10.14-7.104-15.13-10.56z"/><path d="M1257.12 848.383c1.79 2.368 5.21 5.632 13.76 6.4 32 2.624 80.32 6.592 121.12 43.776l.48.416a140.923 140.923 0 0 1 33.66 48c2.34 5.248 6.11 8.288 10.34 8.288 1.21-.01 2.41-.26 3.52-.736v-1.152a7.916 7.916 0 0 1-3.52.928c-3.84 0-7.3-2.816-9.44-7.712a142.125 142.125 0 0 0-33.92-48.256l-.48-.448c-41.06-37.376-89.6-41.344-121.6-44-8.16-.64-11.36-3.68-13.09-5.92a24.712 24.712 0 0 1-4.1-16c4.45-19.584 9.99-43.968 7.91-70.656-3.52-45.152-21.57-83.936-39.04-121.6-14.02-30.112-29.89-64.256-24.39-79.808 9.83-27.712 49.96-67.392 66.76-83.2a53.49 53.49 0 0 1 37.66-15.104 65.675 65.675 0 0 1 19.78 3.2c29.44 9.6 71.1 31.232 117.56 61.088v-1.088c-46.3-29.728-87.87-51.392-117.28-60.8a66.105 66.105 0 0 0-20.06-3.2 54.39 54.39 0 0 0-38.4 15.392c-16.83 15.808-57.09 55.648-66.98 83.552-5.63 16 10.34 50.24 24.42 80.544 17.44 37.44 35.46 76.16 38.94 121.152 2.05 26.528-3.45 50.816-7.9 70.4a26.055 26.055 0 0 0 4.29 16.544zM1437.15 1328.93c-5.15 8.45-11.01 18.02-9.6 28.45a20.79 20.79 0 0 0 3.7 10.67 20.76 20.76 0 0 0 8.75 7.15v-1.05c-3.28-1.5-6.08-3.87-8.1-6.85-2.03-2.98-3.2-6.45-3.39-10.05-1.34-10.08 4.39-19.49 9.6-27.81l.96-1.57c.35-.6.71-1.31 1.06-1.95v-1.98c-.61 1.15-1.22 2.33-1.89 3.42l-1.09 1.57zM1020.13 49.632c27.62 17.344 59.81 25.792 98.43 25.792 35.52 0 72.71-7.008 108.64-13.76 35.01-6.592 71.2-13.376 104.83-13.376 34.12 0 62.37 7.072 86.4 21.632l13.22 8 8.35 5.088v-2.624L1432.8 76l-13.18-8c-24.42-14.784-53.06-21.952-87.59-21.952-33.85 0-70.14 6.816-105.24 13.408-35.84 6.752-72.93 13.728-108.23 13.728-38.17 0-69.98-8.32-97.21-25.6C1003.04 36.096 994.21 24 995.074 11.68A28.433 28.433 0 0 1 998.85 0h-2.496a30.108 30.108 0 0 0-3.52 11.68c-.832 13.216 8.256 25.984 27.296 37.952z"/><path d="M1317.34 819.393c7.3 4 17.28 5.696 26.98 7.328 6.98.977 13.86 2.54 20.58 4.672 4.25 1.656 8.42 3.536 12.48 5.632 9.15 4.512 19.55 9.6 29.05 9.6 1.75.003 3.5-.179 5.22-.544l1.31-.352c13.57-4.032 20.8-21.056 27.04-36.672v-2.656.256c-6.4 16-13.5 34.016-27.2 38.08l-1.22.32c-1.64.377-3.33.56-5.02.544-9.25 0-19.55-5.056-28.64-9.6a132.61 132.61 0 0 0-12.58-5.696 124.674 124.674 0 0 0-20.73-4.672c-9.6-1.632-19.52-3.2-26.66-7.232-15.81-8.672-14.17-24.544-12.41-41.344.86-6.49 1.16-13.042.89-19.584-4.13-53.248-23.9-95.776-43.04-136.896a71.497 71.497 0 0 1-6.96-28.611 71.375 71.375 0 0 1 5.17-28.989 80.91 80.91 0 0 1 18.84-27.029 80.98 80.98 0 0 1 28.04-17.291 58.56 58.56 0 0 1 20.86-3.84c30.88 0 59.88 23.68 85.44 44.544 7.27 5.92 14.12 11.52 20.68 16.288l4.54 3.552v-1.184l-4.13-3.008c-6.4-4.768-13.34-10.336-20.61-16.256-25.6-20.992-54.81-44.8-86.04-44.8a59.734 59.734 0 0 0-21.22 3.904 81.844 81.844 0 0 0-28.36 17.476 81.821 81.821 0 0 0-19.06 27.324 72.395 72.395 0 0 0-5.24 29.376 72.334 72.334 0 0 0 7.06 28.992c19.2 41.024 38.85 83.488 42.94 136.544.27 6.489-.03 12.988-.89 19.424-1.7 16.608-3.46 33.408 12.89 42.4zM1324.96 160.001c-26.91 0-55.55 4.896-85.89 10.08-34.14 5.824-69.47 11.84-107.07 11.84h-8c-11.4-.464-22.74-1.92-33.89-4.352a120.438 120.438 0 0 0-22.75-3.2c-16.61 0-28.8 8.768-42.17 30.208a203.317 203.317 0 0 0-15.68 34.688c-8.04 21.152-16.325 43.008-34.693 55.968-6.4 4.48-18.4 7.936-31.2 11.584-22.4 6.4-47.744 13.632-51.2 28.8-4.288 18.912 34.592 44.8 55.488 58.752 3.904 2.592 7.264 4.832 9.6 6.4 24.48 17.984 44.805 29.952 64.005 29.952 2.6.003 5.2-.222 7.77-.672 15.39-2.784 29.35-13.632 43.94-34.208a324.323 324.323 0 0 1 173.6-124.448c20.14-5.861 41-8.887 61.98-8.992 55.2 0 96 22.4 131.2 47.136v-1.184c-35.2-24.768-76-46.912-131.2-46.912a226.634 226.634 0 0 0-62.3 9.216 325.078 325.078 0 0 0-174.15 124.8c-14.43 20.352-28.19 31.072-43.29 33.792-2.52.449-5.07.673-7.62.672-19.01 0-39.135-11.904-63.487-29.76-2.208-1.632-5.568-3.872-9.6-6.4-20.704-13.792-59.264-39.456-55.104-57.76 3.2-14.56 28.384-21.696 50.496-28 12.8-3.68 25.056-7.168 31.488-11.712 18.592-13.12 26.947-35.2 35.037-56.448a204.82 204.82 0 0 1 15.59-34.496c13.15-21.12 25.15-29.76 41.37-29.76a121.42 121.42 0 0 1 22.56 3.2 195.35 195.35 0 0 0 34.08 4.384h8c37.7 0 73.06-6.016 107.27-11.872 30.27-5.152 58.85-10.048 85.69-10.048 15.13-.189 30.21 1.75 44.8 5.76a413.721 413.721 0 0 1 70.4 28.8v-1.088a409.245 409.245 0 0 0-70.01-28.48 161.897 161.897 0 0 0-45.06-6.24z"/><path d="M1296.64 836.644c6.4 1.632 12.8 3.2 19.2 4.544 33.47 7.776 62.37 14.464 91.26 40.608l.58.544c6.62 6.016 11.87 8.928 16 8.928a7.07 7.07 0 0 0 1.86-.224c6.4-1.44 9.4-10.208 12.8-21.504a149.74 149.74 0 0 1 1.66-5.216v-3.2c-.9 2.688-1.76 5.408-2.59 8.128-3.36 10.976-6.4 19.488-12.13 20.832-4.16.992-9.6-1.792-17.06-8.512l-.57-.512c-29.09-26.336-58.08-33.056-91.68-40.832-6.18-1.44-12.58-2.912-19.2-4.544-23.49-5.888-19.52-27.968-15.68-49.312a112.293 112.293 0 0 0 2.78-27.04c-3.81-49.184-22.72-89.856-41.02-129.184-2.18-4.704-4.51-9.312-6.79-13.76-11.77-23.04-21.92-42.976-7.39-67.488 10.91-18.432 27.27-33.536 43.11-48 2.84-2.624 5.69-5.248 8.48-7.872a34.847 34.847 0 0 1 24.7-8.64c39.42 0 100.06 41.952 134.94 67.2v-1.184c-35.1-25.44-95.36-67.2-134.84-67.2a35.875 35.875 0 0 0-25.38 8.896c-2.78 2.624-5.63 5.248-8.48 7.872-16 14.656-32.29 29.792-43.26 48.352-14.79 24.96-4.04 46.08 7.36 68.416 2.27 4.448 4.6 9.024 6.78 13.728 18.27 39.232 37.15 79.84 40.96 128.864.13 9.006-.8 17.997-2.78 26.784-3.91 21.888-7.97 44.416 16.38 50.528zM623.2 1297.48c-8.096 12.19-18.144 27.39-14.688 37.89a16.027 16.027 0 0 0 10.624 9.6c1.11.39 2.28.58 3.456.57 12.384 0 32-19.2 49.216-35.93 11.008-10.72 21.376-20.84 27.616-23.68 29.856-13.54 70.976-19.97 107.264-25.6 14.336-2.24 27.84-4.39 40.352-6.82a428.154 428.154 0 0 1 81.728-8.42c84.252 0 155.042 30.34 210.332 90.15 6.18 6.72 15.2 10.11 26.79 10.11 36.09 0 98.01-35.2 141.63-100.26 26.08-38.94 64-118.59 24.58-214.24-15.81-38.397-39.27-56.189-73.83-56.189-26.33 0-56.35 9.6-91.1 20.864-42.75 13.795-91.23 29.405-143.36 29.405-39.81.19-79.024-9.66-114.018-28.637-111.328-59.36-114.592-167.712-104.96-255.424 3.712-34.144-2.336-61.152-17.568-78.112a55.112 55.112 0 0 0-42.336-18.336c-32 0-72.224 24.96-86.688 72.608-13.6 44.8 18.656 85.664 56.032 132.896 42.112 53.248 89.856 113.6 80.608 194.145-4.608 39.94-19.2 78.24-39.008 102.4-15.04 18.4-28.32 20.03-42.4 21.76-10.752 1.34-21.856 2.69-34.88 10.98-9.952 6.4-13.056 17.02-16.384 28.41a71.59 71.59 0 0 1-9.408 22.56c-2.624 3.65-7.2 4.45-12.032 5.28-6.4 1.12-13.568 2.37-17.408 10.59-2.656 5.73.864 12.48 4.256 19.01 2.816 5.44 5.76 11.07 4.896 15.75-.704 3.71-4.704 9.72-9.312 16.67zm6.048-33.31c-3.2-6.4-6.4-12.45-4.224-17.38 3.424-7.33 9.856-8.45 16-9.6 4.992-.86 10.144-1.76 13.216-6.02a74.25 74.25 0 0 0 9.6-23.13c3.2-11.04 6.208-21.44 15.584-27.39 12.8-8.04 23.552-9.38 34.112-10.69 14.432-1.76 28.096-3.46 43.584-22.4 20.064-24.51 34.784-63.2 39.424-103.46 9.344-81.311-38.656-141.983-80.992-195.519-37.056-46.816-69.024-87.264-55.712-131.2 14.208-46.816 53.472-71.296 84.928-71.296a53.34 53.34 0 0 1 40.96 17.696c14.88 16.576 20.768 43.104 17.088 76.8-9.6 88.32-6.4 197.376 105.952 257.28a238.14 238.14 0 0 0 114.882 28.799c52.41 0 101.05-15.65 144-29.471 34.59-11.168 64.48-20.8 90.53-20.8 34.17 0 56.41 16.992 72.09 55.071 39.07 94.85 1.51 173.86-24.38 212.51-41.6 62.24-103.97 99.43-140.1 99.43-11.04 0-19.61-3.2-25.44-9.6-55.55-60.19-126.78-90.66-211.582-90.66a428.572 428.572 0 0 0-82.08 8.42c-12.448 2.46-25.984 4.57-40.288 6.81-36.416 5.7-77.664 12.16-107.744 25.8-6.4 2.94-16.544 12.8-28.128 24.03-17.024 16.61-36.32 35.39-48 35.39a8.121 8.121 0 0 1-2.848-.45 13.96 13.96 0 0 1-5.81-3.01 14.03 14.03 0 0 1-3.79-5.34c-3.2-9.6 6.592-24.42 14.464-36.29 4.736-7.13 8.8-13.28 9.6-17.41 1.152-5.28-1.92-11.2-4.896-16.92zM424.544 1302.75c14.432-13.05 37.28-24.48 63.712-37.73 18.496-9.28 43.296-32 41.824-50.56-.8-10.17-8.992-17.76-24.288-22.59a66.576 66.576 0 0 0-20.128-2.81c-19.584 0-41.6 6.4-61.12 12.25-8.896 2.63-17.28 5.09-24.96 6.82-64.384 14.62-103.264 23.45-138.08 23.45-30.848 0-57.888-6.91-93.344-23.84a771.153 771.153 0 0 1-78.56-43.93c-29.248-18.08-42.88-26.11-60.192-26.11A98.66 98.66 0 0 0 0 1143.2v1.66a99.004 99.004 0 0 1 29.248-5.66c16.864 0 30.368 7.94 59.36 25.89a778.418 778.418 0 0 0 78.848 44c35.68 17.05 62.944 24 94.048 24 35.008 0 73.92-8.83 138.432-23.49 7.712-1.76 16-4.22 25.056-6.85 19.36-5.73 41.312-12.19 60.8-12.19 6.652-.1 13.28.82 19.648 2.75 14.624 4.61 22.4 11.75 23.168 21.19 1.408 17.88-22.848 39.93-40.928 48.99-26.56 13.31-49.504 24.8-64 37.98-44.224 39.91-37.152 91.87-23.68 138.53h1.664c-13.408-46.34-20.608-97.95 22.88-137.25z"/><path d="M1396.61 1079.07a36.58 36.58 0 0 0 18.82 4.06c8.33-.11 16.61-1.42 24.57-3.9v-2.37a83.707 83.707 0 0 1-24.57 4.03c-6.09.33-12.16-.95-17.6-3.71-18.79-12-27.11-33.22-35.91-55.65-7.58-19.36-15.42-39.39-30.69-53.502v-.672h-.67c-17.5-15.456-41.12-22.976-72.16-22.976-30.27 0-62.11 7.264-87.68 13.12-17.5 3.968-32.57 7.424-42.3 7.424-5.7 0-9.19-1.184-10.63-3.584-1.88-3.2-.44-9.248 4.29-17.92 22.11-40.352 66.75-136.608 63.68-176.448-2.43-31.424-17.53-64-32.16-95.296-21.18-45.408-43.04-92.48-27.2-137.28 18.18-51.2 98.21-142.816 155.17-150.592 3.53-.461 7.09-.686 10.66-.672 37.02 0 91.23 22.08 147.71 54.048v-2.4c-56.51-32-110.66-53.888-147.71-53.888-3.67-.019-7.34.216-10.98.704-57.6 7.872-138.62 100.32-156.96 152.032-16.22 45.76 5.86 93.184 27.2 139.072 14.53 31.2 29.54 63.488 32 94.496 2.75 35.52-36.19 125.568-63.39 175.232-5.31 9.6-6.66 16-4.26 20.128 1.89 3.2 5.99 4.672 12.55 4.672 9.98 0 25.18-3.456 42.78-7.488 25.6-5.824 57.18-13.056 87.2-13.056 30.66 0 53.89 7.424 71.01 22.72 15.1 13.792 22.91 33.696 30.46 52.996 8.93 22.75 17.38 44.28 36.77 56.67zM1377.95 1225.18c-8.48 19.2-16.45 37.48-26.59 53.22-58.98 91.74-124.8 107.2-194.34 123.55-5.31 1.25-10.88 2.43-16.25 3.59-23.2 4.92-47.17 10.04-66.72 22.72A64.312 64.312 0 0 0 1060 1440h2.11c3.82-3.99 8.12-7.48 12.8-10.4 19.2-12.51 43.14-17.6 66.18-22.4 5.41-1.15 10.97-2.34 16.29-3.58 69.95-16.45 136-32 195.2-124.26 10.2-15.84 18.2-34.11 26.72-53.5 13.47-30.69 28.8-65.51 49.85-77.16 3.78-1.4 7.33-2.65 10.72-3.74v-1.66c-3.61 1.15-7.39 2.46-11.36 3.96-21.57 11.84-36.96 46.92-50.56 77.92z"/><path d="M1045.28 1405.27c37.73-16.83 71.84-24.83 104.83-32.6 66.3-15.59 123.55-29.03 176-110.53 8.83-13.73 16.35-30.88 24.32-49.06 16.64-37.95 33.86-77.18 65.82-93.37 7.78-3.06 15.71-5.68 23.78-7.84v-2.31c-8.42 2.23-16.7 4.95-24.8 8.16-32.67 16.55-50.05 56.16-66.85 94.47-7.93 18.08-15.42 35.2-24.16 48.73-51.93 80.74-108.8 94.11-174.59 109.57-33.09 7.78-67.2 16-105.25 32.74-24.67 11-41.15 23.74-47.997 36.76h2.496c6.851-12.19 22.781-24.19 46.401-34.72zM1052.8 1328.74c-5.95-18.76-32-32.77-77.186-41.6a472.222 472.222 0 0 0-90.56-8.8 492.005 492.005 0 0 0-133.92 18.91 410.79 410.79 0 0 0-17.952 5.5c-76.576 25.44-120.768 67.78-140.608 137.28h2.368c19.744-68.35 63.424-110.08 138.944-135.13a369.474 369.474 0 0 1 17.856-5.48 489.529 489.529 0 0 1 133.312-18.84c30.261 0 60.449 2.94 90.144 8.76 44.382 8.68 69.792 22.18 75.452 40.1 4.36 13.73-2.84 30.46-21.37 49.79-19.2 19.97-38.402 40.16-55.938 60.8h2.944c17.056-20.09 35.934-39.77 54.624-59.23 18.98-20 26.37-37.5 21.89-52.06zM875.137 1150.72a8.435 8.435 0 0 0 4.192 1.09c5.696 0 11.264-5.54 16.192-10.43a36.51 36.51 0 0 1 7.776-6.59c2.55-1.3 5.363-2 8.224-2.05a29.7 29.7 0 0 1 14.4 5.25c1.792.99 3.648 2.04 5.632 3a31.512 31.512 0 0 0 14.272 3.52c4.793-.13 9.553-.84 14.176-2.11a69.952 69.952 0 0 1 16-2.62h.768c12.16 0 23.291 6.4 34.051 12.38 10.75 5.99 21.82 12.32 33.85 12.32 5.93-.04 11.75-1.5 16.99-4.25 3.95-2.14 7.64-4.7 11.01-7.65 4.96-4.1 9.25-7.62 16.48-7.62 2.33.03 4.65.33 6.91.9 20.55 4.83 29.57 23.74 38.4 42.01 3.75 8.59 8.33 16.79 13.67 24.48 10.72 14.18 24.54 21.99 38.94 21.99h.74c14.43-.26 28.32-8.19 39.04-22.4 14.56-19.2 40.99-81.92 30.05-113.12a25.68 25.68 0 0 0-6.95-11.13 25.715 25.715 0 0 0-11.55-6.22c-2.96-.76-6-1.16-9.06-1.18-9.34 0-16.35 4.19-24.44 9.02-1.83 1.09-3.68 2.21-5.67 3.2-16.41 9.28-32.7 11.2-49.92 13.25-6.75.8-13.76 1.63-20.83 2.91-7.47 1.59-14.78 3.89-21.82 6.85-9.03 3.52-17.54 6.82-26.92 6.82a42.217 42.217 0 0 1-18.91-4.67c-13.18-6.4-27.55-12.48-43.42-12.48-5.33.03-10.64.71-15.81 2.01l-7.167 1.79a109.151 109.151 0 0 1-26.656 4.55 47.994 47.994 0 0 1-20.512-4.55l-2.816-1.28c-12.096-5.6-24.608-11.39-37.376-11.39a40.382 40.382 0 0 0-19.968 5.25c-8 4.45-18.72 23.14-18.688 36.19a13.92 13.92 0 0 0 6.72 12.96zm12.8-48a38.573 38.573 0 0 1 19.2-5.05c12.416 0 24.768 5.72 36.704 11.23l2.816 1.31a50.006 50.006 0 0 0 21.184 4.67c9.167-.41 18.249-1.94 27.04-4.57l7.169-1.8c5.04-1.22 10.2-1.85 15.39-1.85 15.52 0 29.7 5.92 42.72 12.32a43.886 43.886 0 0 0 19.62 4.83c9.6 0 18.33-3.36 27.48-6.91a119.47 119.47 0 0 1 21.54-6.79c7.04-1.28 13.98-2.11 20.74-2.88 17.37-2.08 33.82-4 50.49-13.44l5.73-3.2c7.9-4.73 14.72-8.8 23.62-8.8 2.91.03 5.82.41 8.64 1.16 4.07.95 7.82 2.95 10.88 5.81 3.05 2.86 5.3 6.47 6.52 10.47 10.79 30.69-15.42 92.61-29.82 111.65-10.43 13.76-23.84 21.47-37.79 21.73h-.71c-13.88 0-27.26-7.58-37.66-21.34-5.28-7.62-9.81-15.73-13.5-24.23-8.9-18.59-18.12-37.85-39.43-42.88-2.38-.58-4.81-.89-7.26-.93-7.81 0-12.29 3.72-17.51 7.97a54.417 54.417 0 0 1-10.72 7.46 35.148 35.148 0 0 1-16.25 4.09c-11.62 0-22.05-5.88-33.06-12.12-11.01-6.24-22.397-12.58-34.845-12.58h-.864a71.34 71.34 0 0 0-16.416 2.66 57.546 57.546 0 0 1-13.728 2.24 29.54 29.54 0 0 1-13.568-3.36c-1.952-.96-3.776-1.99-5.568-2.98a31.39 31.39 0 0 0-15.168-5.44c-3.095.05-6.136.81-8.896 2.21a37.056 37.056 0 0 0-8.224 6.88c-4.704 4.67-10.048 9.98-15.072 9.98-1.2 0-2.38-.31-3.424-.89a12.212 12.212 0 0 1-4.665-5 12.207 12.207 0 0 1-1.255-6.72c-.064-13.28 11.104-31.07 17.856-34.81l.064-.1z"/><path d="M668.801 1264.01c3.414.66 6.892.94 10.368.83 9.76 0 45.888-1.44 102.208-20.07a508.357 508.357 0 0 1 155.104-24.12c87.099 0 144.989 13.05 219.519 84.41a29.389 29.389 0 0 0 21.06 7.62c32.41 0 81.4-35.2 111.55-80.29 23.55-35.2 57.76-106.98 22.4-192.83-15.23-36.93-34.34-42.05-52.71-42.05-22.72 0-51.2 9.15-84.09 19.78-44.35 14.3-94.63 30.49-150.4 30.49a259.284 259.284 0 0 1-124.801-31.29c-124.8-66.564-126.496-190.596-116.928-278.084 2.976-27.104-1.248-48.544-11.84-60.384a32.616 32.616 0 0 0-25.344-10.72c-23.712 0-53.6 19.392-64.832 56.384-10.144 33.472 18.688 69.888 52.064 112 42.688 53.92 95.776 121.12 85.44 210.724a233.26 233.26 0 0 1-20.448 72.8 278.416 278.416 0 0 1-66.24 90.43 337.424 337.424 0 0 1-48.928 35.2c-11.936 7.42-19.2 11.9-18.624 15.29.224 1.7 1.952 2.82 5.472 3.88zm13.728-18.02a341.168 341.168 0 0 0 49.056-35.2 280.18 280.18 0 0 0 66.496-90.75 235.033 235.033 0 0 0 20.512-73.09c10.208-90.592-42.912-157.888-85.792-211.936-33.216-41.984-61.888-78.24-51.904-111.2 11.104-36.576 40.544-55.712 64-55.712a31.746 31.746 0 0 1 24.64 10.4c10.4 11.648 14.528 32.8 11.584 59.648-9.6 87.744-7.904 212.192 117.44 279.04a260.055 260.055 0 0 0 125.219 31.42c55.9 0 106.24-16.25 150.72-30.59 32.83-10.56 61.15-19.71 83.74-19.71 18.05 0 36.8 5.02 51.81 41.6 35.2 85.44 1.09 156.8-22.4 192-29.51 44.03-79.17 79.84-110.75 79.84-7.5.35-14.84-2.3-20.39-7.36-36.13-34.59-69.76-56.58-105.79-69.18-31.04-10.85-65.247-15.49-114.399-15.49a508.7 508.7 0 0 0-155.392 24.19c-56.224 18.56-92.224 20-101.92 20-3.401.1-6.802-.17-10.144-.8-2.944-.77-4.512-1.7-4.672-2.78-.32-2.95 7.456-7.81 18.272-14.5l.064.16z"/><path d="M744.928 689.217c-17.152 0-36 17.376-42.176 32.928-4.096 10.336-.992 28 8.32 47.232 8.8 18.144 20.48 32 29.12 34.688 1.276.387 2.602.591 3.936.608a13.297 13.297 0 0 0 4.288-.736c11.136-3.904 10.88-10.72 10.336-25.6a244.35 244.35 0 0 1 1.088-39.168c2.56-23.264-1.088-40.992-6.016-46.464a10.466 10.466 0 0 0-8.896-3.488zm13.472 49.696a247.146 247.146 0 0 0-1.088 39.392c.544 15.008.768 20.608-9.28 24.096a11.3 11.3 0 0 1-7.2 0c-8.256-2.464-19.552-16-28.16-33.856-9.12-18.848-12.224-36-8.288-45.92 5.984-15.104 24.192-32 40.704-32a9.15 9.15 0 0 1 7.712 2.848c4.512 5.44 7.936 22.656 5.6 45.44zM1132.29 1152.96c2.8 1.15 5.52 2.48 8.13 4l3.42 1.89a189.731 189.731 0 0 1 32 20.8c2.93 3 6.79 4.93 10.95 5.47 4.41 0 6.97-3.71 9.02-7.2 7.74-13.21 10.46-23.39 13.63-41.21.33-1.26.37-2.58.14-3.86a9.13 9.13 0 0 0-1.48-3.57c-2.31-2.75-6.88-3.2-13.63-1.37-20.29 5.63-33.96 8.22-51.2 11.49l-9.44 1.79c-1.5.18-2.9.84-3.99 1.87a7.102 7.102 0 0 0-2.13 3.86c-.22 1.21 0 4.19 4.58 6.04zm1.79-9.95c3.2-.64 6.4-1.25 9.6-1.79 17.35-3.2 31.07-5.89 51.43-11.52 2.07-.63 4.23-.98 6.4-1.06a6.417 6.417 0 0 1 5.18 1.83c.56.87.93 1.84 1.1 2.86.16 1.02.12 2.06-.14 3.06-3.2 17.6-5.82 27.65-13.44 40.57-2.21 3.81-4.35 6.4-7.42 6.4a17.09 17.09 0 0 1-9.76-5.05 191.751 191.751 0 0 0-32.29-21.03l-3.39-1.85a63.132 63.132 0 0 0-8.32-4.13c-2.44-.96-3.72-2.46-3.56-4.16.25-1.08.83-2.05 1.65-2.79a5.4 5.4 0 0 1 2.96-1.34z"/><path d="M838.401 1186.66c3.712-.04 7.419-.29 11.104-.74a973.396 973.396 0 0 1 98.208-5.44c17.172-.11 34.337.69 51.424 2.4 73.603 7.9 137.253 43.01 167.713 74.24 2.54 2.74 5.62 4.93 9.04 6.42 3.43 1.5 7.13 2.26 10.86 2.25 17.06 0 38.05-14.81 57.6-40.7 34.31-45.31 44.8-132.03 27.68-166.21-4.51-9.06-10.81-13.86-18.24-13.86h-1.89c-13.44 1.38-32 6.85-55.74 13.8-44.26 12.8-104.86 30.75-170.59 31.8-56.161.93-120.353-21.31-142.177-32a38.893 38.893 0 0 0-14.976-5.05c-6.4 0-6.784 6.21-7.264 16.45a120.459 120.459 0 0 1-4.832 32 407.885 407.885 0 0 1-21.408 53.56c-6.624 14.21-10.624 22.82-7.808 27.27 1.696 2.72 5.088 3.81 11.296 3.81zm-2.592-30.44a401.965 401.965 0 0 0 21.44-53.69 119.86 119.86 0 0 0 4.896-32.29c.48-10.02.704-15.55 6.4-15.55a38.508 38.508 0 0 1 14.528 4.93c21.504 10.49 83.808 32 139.327 32h3.2c65.86-1.06 126.56-18.85 170.85-31.84 23.62-6.95 42.24-12.39 55.61-13.76 7.94-.8 14.37 3.64 19.2 13.21 16.87 33.95 6.4 120.16-27.58 165.22-19.39 25.6-40.13 40.32-56.86 40.32-3.61.01-7.17-.73-10.48-2.17-3.3-1.44-6.27-3.54-8.72-6.18-30.6-31.4-94.5-66.63-168.291-74.56a493.03 493.03 0 0 0-51.552-2.4 973 973 0 0 0-98.336 5.44c-3.642.45-7.306.69-10.976.73-5.76 0-9.088-.99-10.432-3.2-2.624-3.84 1.28-12.25 7.776-26.21z"/><path d="M766.784 1223.32c3.686-.14 7.326-.86 10.784-2.14 44.8-15.55 96.768-23.1 158.848-23.1 77.344 0 153.984 7.1 241.084 92.8a13.49 13.49 0 0 0 4.43 2.82c1.65.63 3.41.94 5.17.89 24.36 0 69.35-46.66 82.69-74.79 1.22-2.56 2.53-5.28 3.94-8.12 16.99-34.85 45.41-93.16 16.35-163.65-11.58-28.19-22.4-28.19-32-28.19-19.2 0-46.08 8.67-77.22 18.68-45.92 14.82-97.98 31.59-157.24 31.59-50.724 0-91.78-9.31-133.092-30.21-6.4-3.2-12.544-6.75-17.984-9.89-10.88-6.4-19.488-11.17-24.992-11.17-4.32 0-6.4 3.01-6.4 9.22.033 1.59.15 3.19.352 4.77 5.92 60.8-17.6 117.44-69.888 168.51-9.152 8.93-13.024 15.33-11.488 19.2.864 1.86 3.136 2.78 6.656 2.78zm5.536-21.37c33.664-32.87 55.68-68.51 65.536-105.99a173.262 173.262 0 0 0 4.672-63.32 43.727 43.727 0 0 1-.352-4.68c0-7.39 3.2-8.25 5.568-8.25 5.248 0 14.176 5.12 24.512 11.04 5.44 3.2 11.616 6.65 18.048 9.92 41.44 20.96 82.624 30.33 133.506 30.33 59.42 0 111.55-16.83 157.57-31.64 31.04-10.02 57.82-18.66 76.8-18.66 9.24 0 19.74 0 31.1 27.58 28.8 70.12.54 128.2-16.35 162.88-1.41 2.85-2.72 5.57-3.94 8.13-13.25 27.94-57.79 74.24-81.82 74.24-1.67.07-3.33-.2-4.89-.79a12.52 12.52 0 0 1-4.2-2.63c-40.48-39.78-82.34-65.83-128-79.65-40.7-12.32-78.496-13.34-113.728-13.34-62.176 0-114.272 7.58-159.168 23.16a33.443 33.443 0 0 1-10.464 2.08c-2.144 0-4.896-.41-5.728-2.43-.832-2.01-.224-6.69 11.328-17.98zM594.815 0h-2.368a321.953 321.953 0 0 0-10.4 56.897c-3.552 36.064-6.688 83.2.704 128.896 5.376 33.216 16.192 48 35.2 48 12.032 0 26.016-5.824 42.208-12.576a311.733 311.733 0 0 1 35.232-13.216l3.584-.96c35.424-9.6 75.36-10.848 117.728-4a330.173 330.173 0 0 1 34.016 8.16c16.256 4.512 33.056 9.152 50.112 9.888 9.248.416 15.84-.512 20.48-2.848 13.632-6.784 7.008-23.712 0-41.6-4.128-10.592-8.416-21.568-9.12-31.392-3.744-52.224 25.408-99.808 64-145.28h-2.944c-38.24 45.376-67.04 92.992-63.264 145.44.704 10.176 5.056 21.28 9.28 32 6.912 17.696 12.8 32.96 1.088 38.816a40.777 40.777 0 0 1-19.392 2.624c-16.8-.736-33.472-5.344-49.6-9.792a323.229 323.229 0 0 0-34.272-8.16c-42.688-6.912-82.944-5.536-118.656 4.032l-3.616.992a317.691 317.691 0 0 0-35.616 13.216c-16 6.656-29.76 12.416-41.344 12.416-17.536 0-27.68-14.208-32.864-46.112-7.328-45.312-4.224-92.384-.672-128.32A317.415 317.415 0 0 1 594.815 0zM566.111 895.489a9.124 9.124 0 0 0-5.856-2.88c-4.48 0-7.616 5.696-12.352 14.336a155.02 155.02 0 0 1-23.296 33.536l-3.424 3.52c-13.344 14.144-19.456 20.608-17.952 24.064.672 1.6 2.752 2.304 6.688 2.304a132.52 132.52 0 0 0 16.512-1.664 78.947 78.947 0 0 1 10.272-.704c27.744 0 50.88 15.552 67.776 26.912 9.888 6.657 17.696 11.937 23.296 11.937 1.105.02 2.2-.23 3.191-.72a6.916 6.916 0 0 0 2.505-2.1c17.728-22.621-44.256-87.581-67.36-108.541zm66.112 107.681a5.447 5.447 0 0 1-1.96 1.63c-.774.37-1.627.56-2.488.55-5.12 0-12.8-5.16-22.4-11.653-17.056-11.488-40.448-27.2-68.672-27.2-3.511.004-7.018.25-10.496.736a128.003 128.003 0 0 1-16.288 1.632c-3.2 0-4.832-.448-5.216-1.312-1.088-2.496 6.4-10.4 17.632-22.4l3.424-3.616a156.016 156.016 0 0 0 23.552-33.856c4.48-8.128 7.424-13.504 10.944-13.504a7.745 7.745 0 0 1 4.8 2.496c28.672 26.048 82.88 86.304 67.168 106.497z"/><path d="M566.56 922.173c-11.2 0-25.6 17.665-25.6 26.049a5.211 5.211 0 0 0 3.591 5.288c.73.238 1.503.311 2.265.216 16.48.32 33.92 10.784 46.656 18.4 7.552 4.544 12.992 7.808 16.224 7.808a3.204 3.204 0 0 0 2.464-.961 4.764 4.764 0 0 0 .896-3.712c-1.184-15.392-30.4-46.207-42.24-52.127a9.157 9.157 0 0 0-4.256-.961zm44.16 53.249c0 1.344 0 1.856-.32 2.016-.32.16-.224.256-.8.256-2.592 0-8.384-3.488-15.072-7.488-12.8-7.776-30.688-18.4-47.776-18.688-2.56 0-3.68-1.056-3.648-3.2 0-7.488 13.472-23.84 23.456-23.84a6.748 6.748 0 0 1 3.2.736c12.64 6.304 39.904 36.256 40.96 50.208zM526.974 631.935c2.752 0 4.928-3.904 7.104-12.608 8.032-32.672 34.56-75.904 75.744-98.912 41.6-23.264 69.504-29.312 84.416-32.544 7.424-1.6 11.136-2.432 12.032-4.384a2.906 2.906 0 0 0-.32-2.656c-2.88-5.248-54.4-34.144-128.832-40.16l-3.2-.256c-6.688-.544-12.48-1.024-18.016-1.024-19.36 0-35.008 5.44-71.488 36.256-5.76 4.864-11.648 9.376-17.344 13.728-17.632 13.536-32.864 25.216-32 38.4.768 10.176 10.816 20.288 31.712 31.776 23.104 12.8 37.184 38.016 46.496 54.72 6.112 10.656 10.016 17.664 13.696 17.664zm-59.552-73.152c-20.288-11.2-30.496-21.344-31.2-31.008-.96-12.8 14.08-24.288 31.488-37.632 5.728-4.384 11.616-8.896 17.408-13.792 36.224-30.592 51.712-36 70.848-36 5.504 0 11.264.48 17.952 1.024l3.2.256c72.576 5.856 125.312 34.656 128 39.648.576 1.024.448 1.536.32 1.824-.704 1.504-4.704 2.368-11.36 3.84-14.976 3.2-42.88 9.312-84.672 32.64-41.792 23.328-68.16 66.656-76.256 99.488-1.952 8.032-3.968 11.904-6.144 11.904-3.2 0-7.328-7.552-12.8-17.088-9.248-16.832-23.424-42.24-46.784-55.104z"/><path d="M533.023 686.879c2.784 0 4.704-3.2 6.048-10.496 8.32-44.064 26.304-106.464 86.4-139.744a275.203 275.203 0 0 1 64.192-24.928 56.72 56.72 0 0 0 15.392-8.352c6.624-4.448 13.504-9.088 19.84-9.088.719.001 1.436.065 2.144.192 3.337.8 6.419 2.429 8.96 4.736a15.224 15.224 0 0 0 9.376 4.352 12.143 12.143 0 0 0 4.416-.928 11.965 11.965 0 0 0 5.472-5.184 8.675 8.675 0 0 1 9.12-5.056c5.408.448 8.32 4.576 11.392 8.928a25.397 25.397 0 0 0 7.552 7.968 23.247 23.247 0 0 0 10.144 2.656 6.403 6.403 0 0 0 5.408-2.016 6.012 6.012 0 0 0 .48-5.376c-2.08-7.552-18.272-14.592-28.96-19.2-3.2-1.376-5.92-2.56-7.648-3.488-16-8.448-32-15.616-45.312-21.504-56.704-24.8-108.384-39.936-158.016-46.272a119.214 119.214 0 0 0-14.816-1.056c-24.448 0-43.392 10.688-81.088 45.76-9.248 8.608-18.784 16-27.968 23.136-20.64 16-36.928 28.64-36.544 44.544.32 12.576 11.232 25.952 34.304 42.112 37.184 26.016 61.888 65.536 78.208 91.68 10.08 16 16.672 26.624 21.504 26.624zm-99.2-119.232c-22.848-16-33.6-29.088-33.92-41.312-.352-15.424 15.744-27.936 36.16-43.776 9.216-7.168 18.752-14.56 28.032-23.2 37.504-34.88 56.288-45.504 80.448-45.504 4.913.043 9.819.396 14.688 1.056 49.536 6.4 101.152 21.44 157.76 46.208 13.44 5.888 29.312 13.024 45.248 21.44 1.76.96 4.512 2.144 7.712 3.52 10.528 4.608 26.464 11.552 28.416 18.656.303.731.432 1.521.377 2.31a5.1 5.1 0 0 1-.697 2.234 5.887 5.887 0 0 1-4.64 1.632 22.19 22.19 0 0 1-9.6-2.56 24.044 24.044 0 0 1-7.232-7.648c-3.2-4.352-6.4-8.832-12.096-9.344a9.604 9.604 0 0 0-10.016 5.504 11.073 11.073 0 0 1-5.024 4.8 10.83 10.83 0 0 1-4.064.832 14.458 14.458 0 0 1-8.8-4.128 20.967 20.967 0 0 0-9.184-4.832 11.077 11.077 0 0 0-2.304-.224c-6.656 0-13.632 4.704-20.384 9.248a54.908 54.908 0 0 1-15.072 8.224 278.68 278.68 0 0 0-64.448 24.992c-60.544 33.504-78.656 96.192-87.008 140.416-1.216 6.56-2.88 9.6-5.088 9.6-4.32 0-11.2-11.04-20.736-26.304-16.352-26.08-41.216-65.696-78.528-91.84z"/><path d="M651.23 1088.38a68.716 68.716 0 0 0 31.105-12.58 68.774 68.774 0 0 0 21.439-25.82c9.152-18.97 14.112-51.197-14.304-96.733-12.192-19.552-25.6-39.328-38.4-58.432-36.8-54.624-71.552-106.24-85.92-158.016-16.224-58.56-3.2-106.88 41.024-152.032 38.4-39.104 88.896-61.536 138.848-61.536 37.536 0 71.04 13.216 94.304 37.184 25.6 26.368 38.4 64.896 36.96 111.488-.32 10.816-.832 21.984-1.376 33.792-1.952 42.048-4.128 89.6 2.656 129.344 7.808 45.6 26.336 73.6 56.608 86.112a122.439 122.439 0 0 0 45.728 10.048 76.073 76.073 0 0 0 35.548-8.376 76.147 76.147 0 0 0 27.56-23.976c26.59-36 32.96-97.632 15.84-153.376-36.71-119.616-124.804-191.04-255.396-267.488-99.2-58.08-182.816-76-258.528-86.72a114.538 114.538 0 0 0-16-1.216c-31.584 0-46.656 16-65.696 36.48-7.328 7.84-14.88 16-24.256 24.192a191.606 191.606 0 0 1-28.544 20.384c-13.344 8.224-24.864 15.296-37.536 34.24-25.152 37.6 8.512 60.8 44.128 85.088 18.848 12.8 38.4 26.24 48.736 42.048 65.536 99.2 39.104 205.216-7.52 271.232-13.312 18.848-32.768 36.672-53.376 55.552-25.184 23.072-51.2 46.907-66.112 73.597-6.4 11.46-8.224 19.2-5.568 23.78 1.952 3.2 6.4 4.96 13.152 4.96 12.288 0 31.808-5.09 54.4-11.01 31.712-8.26 71.168-18.56 106.048-18.56a113.737 113.737 0 0 1 47.072 8.77 171.788 171.788 0 0 1 33.856 22.21c17.088 13.31 33.248 25.88 56.096 25.88 2.483-.02 4.962-.19 7.424-.51zM554.334 1040a112.94 112.94 0 0 0-47.456-8.83c-35.008 0-74.528 10.3-106.304 18.59-22.56 5.89-42.016 10.97-54.176 10.97-6.4 0-10.56-1.47-12.32-4.48-2.496-4.22-.672-11.68 5.568-22.81 14.816-26.5 40.8-50.305 65.952-73.313 20.64-18.912 40.128-36.768 53.504-55.712a253.113 253.113 0 0 0 46.496-127.776c3.616-51.2-9.6-99.872-39.104-144.704-10.528-16-30.08-29.344-48.992-42.304-35.2-24.16-68.512-46.944-43.872-83.776 12.576-18.752 24-25.792 37.216-33.92a189.915 189.915 0 0 0 28.8-20.512 328.976 328.976 0 0 0 24.352-24.256c18.88-20.192 33.824-36.16 64.992-36.16 5.302.032 10.596.439 15.84 1.216 75.616 10.688 159.2 28.608 258.144 86.592 130.272 76.32 218.366 147.616 255.006 266.912 17.03 55.488 10.72 116.8-15.71 152.544a75.156 75.156 0 0 1-27.21 23.715 75.086 75.086 0 0 1-35.126 8.285 121.07 121.07 0 0 1-45.312-9.888c-29.952-12.192-48.288-40.128-56.032-85.376-6.784-39.552-4.608-87.136-2.656-129.12.544-11.84 1.056-23.008 1.376-33.856 1.408-46.816-11.456-85.6-37.216-112.16-23.456-24.16-57.184-37.472-95.008-37.472-50.208 0-101.056 22.4-139.52 61.824-23.488 24-38.016 48.736-44.352 75.68-5.664 24.064-4.672 49.344 3.2 77.28 14.4 51.936 49.184 103.584 86.048 158.304 12.8 19.2 26.176 38.848 38.4 58.4 28.192 45.216 23.296 77.053 14.24 95.803a67.837 67.837 0 0 1-21.145 25.4 67.953 67.953 0 0 1-30.631 12.4c-2.401.26-4.815.4-7.232.41-22.4 0-38.4-12.48-55.52-25.6a172.024 172.024 0 0 0-34.24-22.3z"/><path d="M672.222 1048.7a35.127 35.127 0 0 0 10.059-11.1 35.166 35.166 0 0 0 4.533-14.27c3.84-31.46-24.064-77.38-49.152-107.108-31.264-37.12-62.304-76.8-77.472-115.2a142.596 142.596 0 0 1-3.392-13.824c-4.864-22.752-13.056-60.8-24.864-60.8a6.572 6.572 0 0 0-3.2.992c-4.896 2.912-6.4 8.64-4.416 17.536a134.4 134.4 0 0 0 8.384 23.008c3.36 7.84 6.4 14.592 6.24 18.432 0 9.856-4.736 14.208-9.184 18.432a23.975 23.975 0 0 0-8.384 12.608c-1.664 7.616 1.472 13.344 4.512 18.88 3.04 5.536 5.728 10.4 4.8 17.216-1.696 12.48-41.312 57.6-76.256 97.376-28.8 32.928-53.888 61.372-53.44 66.812.008.19.051.36.128.53.077.16.186.31.32.43 2.4 2.02 6.72 2.98 13.28 2.98 13.892-.7 27.717-2.37 41.376-4.99 20.192-3.2 43.072-6.91 62.944-6.91 15.52 0 27.136 2.2 35.488 6.75 4.576 2.49 9.6 5.41 14.976 8.54 23.872 13.86 53.568 31.14 78.72 31.14a39.91 39.91 0 0 0 24-7.46zm-117.344-33.18c-8.512-4.64-20.256-6.88-35.936-6.88-19.936 0-42.88 3.68-63.104 6.94a300.53 300.53 0 0 1-41.216 4.96c-6.4 0-10.464-.89-12.8-2.75v-.29c-.416-5.05 25.6-34.718 53.216-66.11 35.04-39.904 74.72-85.12 76.448-97.888.992-7.136-1.984-12.576-4.864-17.824-2.88-5.248-6.016-10.912-4.448-18.208a22.984 22.984 0 0 1 8.096-12.096c4.608-4.352 9.376-8.864 9.6-19.2 0-4.032-2.912-10.88-6.4-18.816a136.295 136.295 0 0 1-8.32-22.848c-1.824-8.416-.544-13.792 4-16.48a5.349 5.349 0 0 1 2.816-.864c11.04 0 19.424 39.136 23.936 60.16a138.22 138.22 0 0 0 3.392 14.112c15.232 38.4 46.336 78.176 77.632 115.2 24.96 29.6 52.736 75.2 48.96 106.372a34.458 34.458 0 0 1-4.444 13.9 34.497 34.497 0 0 1-9.796 10.83 38.934 38.934 0 0 1-23.52 7.14c-24.896 0-54.4-17.22-78.24-31.01a614.743 614.743 0 0 0-15.008-8.35z"/><path d="M661.279 1008.54c2.848-26.337-25.408-67.713-39.52-83.617a812.783 812.783 0 0 1-52.544-66.272c-11.168-15.328-17.312-23.776-21.28-23.776-2.72 0-4.224 3.52-5.152 12.192-6.976 65.152-49.12 100.416-74.304 121.6-11.008 9.248-18.304 15.328-18.592 20.352a5.21 5.21 0 0 0 1.504 3.968 15.008 15.008 0 0 0 11.488 3.584 141.447 141.447 0 0 0 23.104-3.2 214.184 214.184 0 0 1 38.816-4.576c18.624 0 33.632 4.64 45.952 14.205 17.28 13.44 42.912 27.78 62.944 27.78a30.53 30.53 0 0 0 18.432-5.47 22.887 22.887 0 0 0 6.419-7.38c1.58-2.9 2.512-6.1 2.733-9.39zm-27.68 21.21c-19.776 0-45.184-14.24-62.368-27.58-12.48-9.599-27.68-14.399-46.528-14.399a214.995 214.995 0 0 0-38.976 4.64 140.849 140.849 0 0 1-22.944 3.2 14.108 14.108 0 0 1-10.784-3.2 4.086 4.086 0 0 1-.975-1.463 4.087 4.087 0 0 1-.273-1.737c.256-4.608 7.808-10.944 18.272-19.68 25.28-21.184 67.584-56.608 74.624-122.144.832-7.84 2.144-11.328 4.192-11.328 3.488 0 9.888 8.8 20.48 23.392a822.499 822.499 0 0 0 52.64 66.336c14.016 15.808 42.08 56.864 39.264 82.883a21.9 21.9 0 0 1-2.634 8.96 21.898 21.898 0 0 1-6.134 7.04 29.523 29.523 0 0 1-17.856 5.08zM934.688 745.253c-3.2 50.048 11.072 84.512 25.6 100.064 6.656 7.104 13.984 11.008 20.576 11.04 9.312 0 16.32-7.328 19.716-20.64 21.85-85.664-52.58-176-61.7-183.52-2.656-2.176-4.448-2.464-5.632-1.184-2.144 2.336-1.472 9.984-.256 23.872a447.28 447.28 0 0 1 1.696 70.368zm-.288-93.152a.745.745 0 0 1 .544-.256c.448 0 1.312.288 2.88 1.568 9.056 7.488 82.846 96.992 61.184 181.92-3.2 12.512-9.6 19.424-18.176 19.424-6.144 0-13.056-3.744-19.392-10.56-14.336-15.296-28.48-49.28-25.216-98.848a450.654 450.654 0 0 0-1.664-70.624c-.992-12.064-1.76-20.8-.16-22.624zM1324.96 182.4c-25.03 0-52.77 4.736-82.11 9.6-35.2 5.984-71.33 12.16-110.85 12.16h-8.51l-6.98-.192c-5.98 0-11.62-.32-17.06-.32-34.04 0-55.1 6.944-69.02 43.552-8.77 23.136-18.72 49.344-42.623 66.24-6.752 4.8-13.504 8.896-19.488 12.48-13.824 8.352-24.736 14.944-25.152 24.064-.352 8.384 8.096 18.464 27.488 32.672 18.56 13.632 33.855 20.256 46.715 20.256h3.46c18.69-1.728 31.23-17.184 47.1-36.736a363.883 363.883 0 0 1 24.96-28.544 343.831 343.831 0 0 1 147.68-87.648c22.17-6.5 45.13-9.861 68.23-9.984 54.4 0 96.45 19.68 131.2 42.464v-1.152c-34.75-22.688-76.8-42.272-131.2-42.272a248.686 248.686 0 0 0-68.48 10.08 345.023 345.023 0 0 0-148.1 87.904 358.263 358.263 0 0 0-25.02 28.608c-15.75 19.392-28.16 34.688-46.47 36.384h-3.36c-12.64 0-27.739-6.4-46.171-20.064-19.2-14.016-27.424-23.84-27.072-32 .384-8.576 11.136-15.072 24.704-23.264 5.984-3.616 12.8-7.712 19.552-12.512 24.127-17.088 34.107-43.456 42.947-66.72 13.69-35.84 34.52-42.656 68.12-42.656 5.44 0 11.08.16 17.03.32l6.97.192h8.55c39.58 0 75.9-6.208 111.01-12.192 29.31-4.992 56.99-9.6 81.95-9.6a140.747 140.747 0 0 1 38.62 4.896c24.8 7.04 50.21 18.656 76.42 32.384v-1.088c-26.11-13.504-51.43-25.024-76.16-32a139.994 139.994 0 0 0-38.88-5.312z"/><path d="M909.921 742.395c-3.712 48.544 5.888 87.84 27.008 110.624 11.04 11.936 24.608 18.496 38.208 18.496 19.392 0 34.913-13.472 39.523-34.304 13.47-60.8-7.39-115.712-27.267-150.976-23.328-41.408-53.216-70.72-67.584-80.32-5.28-3.488-8.96-5.664-11.232-5.664a2.537 2.537 0 0 0-1.952.832c-1.856 2.08-1.088 8.032.416 19.808a553.889 553.889 0 0 1 2.88 121.504zm-2.592-140.8a1.535 1.535 0 0 1 1.248-.512c2.016 0 5.728 2.208 10.688 5.504 32.48 21.664 118.755 120.384 94.435 230.4-4.51 20.416-19.651 33.568-38.403 33.568-13.312 0-26.656-6.4-37.504-18.176-20.96-22.592-30.432-61.632-26.752-109.92a552.363 552.363 0 0 0-2.912-121.6c-1.504-10.88-2.336-17.408-.8-19.264z"/><path d="M891.522 745.601c-3.712 60.448 7.872 108.16 32.544 134.4 12.8 13.6 28.288 20.768 44.8 20.768 31.684 0 58.494-25.6 66.784-63.776 12.19-56.256 1.7-111.648-31.17-164.608-33.31-53.664-79.39-88.384-103.902-104.288-12.48-8.096-17.824-11.456-19.872-9.024-2.048 2.432-.576 7.872 1.6 19.456 4.8 25.024 14.688 77.28 9.216 167.072zm-10.048-185.888a1.43 1.43 0 0 1 1.152-.48c2.592 0 8.192 3.648 17.472 9.6 81.664 53.024 160.002 151.232 134.622 267.904-8.16 37.696-34.62 63.008-65.822 63.008-16.288 0-31.552-7.072-44.128-20.448-24.512-26.048-35.968-73.6-32.288-133.696 5.472-89.824-4.416-142.176-9.184-167.296-2.016-10.624-3.296-17.024-1.824-18.688v.096zM523.262 544.739c9.056 0 15.552-8.736 22.4-21.856 12.16-22.912 37.472-33.984 51.2-39.936 6.88-3.04 9.6-4.16 9.12-6.048-.48-1.888-2.048-2.272-11.456-2.912-28.352-1.92-91.968 25.12-99.2 45.472a10.463 10.463 0 0 0 3.648 12.384c10.912 9.024 18.208 12.8 24.416 12.8l-.128.096zm-25.952-24.512c6.688-18.592 65.824-44.096 94.176-44.096h2.848a45.18 45.18 0 0 1 9.024 1.12 73.958 73.958 0 0 1-7.424 3.552c-13.888 6.048-39.68 17.344-52.16 40.96-7.872 14.848-13.632 20.64-20.512 20.64-5.632 0-12.512-3.712-23.008-12.384a8.226 8.226 0 0 1-2.944-9.792z"/><path d="M551.104 543.584c21.792-39.712 61.632-53.568 93.888-61.216 3.2-.736 3.392-2.304 3.2-3.2-.736-6.4-30.944-18.848-76.032-18.848-5.088 0-10.304.16-15.488.48-20.576 1.248-69.152 29.984-86.624 51.2-4.544 5.504-6.592 10.112-6.112 13.632 1.216 8.832 9.088 12.8 18.176 17.28 9.6 4.8 20.576 10.24 25.888 22.944 3.2 7.36 7.168 11.104 12.064 11.104 8.448.064 18.848-11.168 31.04-33.376zm-41.6 21.696c-5.536-13.216-16.736-18.784-26.624-23.712-8.704-4.352-16.224-8.096-17.312-16-.416-3.04 1.568-7.36 5.76-12.448 17.248-21.024 65.184-49.44 85.504-50.656 5.12-.32 10.304-.48 15.36-.48 44.32 0 73.856 12.256 74.464 17.44 0 .832-1.248 1.28-2.08 1.472-32.576 7.712-72.8 21.728-94.912 61.984-18.464 33.376-32.128 41.472-40.128 22.4h-.032zM972.128 817.984c1.664 0 3.2-1.152 4.384-3.456 6.24-11.712 6.112-52.128-10.4-76.8-2.176-3.2-5.28-2.752-7.616 1.28-6.208 10.688-8.8 44.8 8.096 74.304 1.792 3.136 3.648 4.672 5.536 4.672zM960.48 740.16c.8-1.44 1.696-2.272 2.368-2.272.672 0 1.152.704 1.408 1.152 15.84 23.552 16.16 63.424 10.304 74.432-.768 1.472-1.632 2.304-2.4 2.304s-2.304-1.312-3.584-3.52c-16.256-28.512-13.92-62.08-8.096-72.096zM1180.29 916.196c2.27 3.2 7.87 4.704 18.65 4.704 6.72 0 14.79-.544 24.1-1.184 11.52-.768 24.61-1.632 38.11-1.632 42.82 0 71.65 9.088 90.88 28.8 17.89 13.76 27.78 36.192 36.48 55.966 10.56 24.07 19.71 44.8 39.91 44.8 2.25-.01 4.51-.24 6.72-.7 1.64-.34 3.26-.77 4.86-1.28V1044c-1.79.58-3.55 1.03-5.18 1.38-2.11.43-4.25.66-6.4.67-19.2 0-28.1-20.32-38.4-43.87-8.8-19.968-18.76-42.592-36.87-56.544-19.49-19.84-48.7-29.088-91.97-29.088-13.56 0-26.65.864-38.2 1.664-9.32.608-17.32 1.152-24 1.152-9.96 0-15.46-1.28-17.35-4.032a6.407 6.407 0 0 1-.79-3.088c0-1.08.27-2.143.79-3.088 20.39-54.4 37.41-123.328 35.78-144.544-2.88-37.152-19.2-72.256-35.01-106.176-19.2-41.6-37.57-80.736-25.98-113.44 16-45.44 89.6-124.32 129.6-129.76a47.85 47.85 0 0 1 6.4-.384c31.04 0 85.72 22.208 147.71 58.976v-1.856c-61.92-36.608-116.58-58.72-147.71-58.72-2.21-.019-4.41.12-6.6.416-40.32 5.472-114.62 84.992-130.88 130.816-11.8 33.312 6.56 72.8 26.02 114.624 15.74 33.792 32 68.768 34.88 105.6 1.44 18.592-13.82 85.472-35.65 144-.6 1.16-.9 2.45-.88 3.756a7.87 7.87 0 0 0 .98 3.732zM1332.03 1422.68c-1.82 0-4.93.2-8.83.45-6.59.42-15.62.99-24.61.99-22.21 0-33.86-3.64-34.59-10.84-1.12-10.85 24.64-26.98 41.6-37.64a153.52 153.52 0 0 0 15.36-10.3 323.601 323.601 0 0 0 58.3-68.93c11.55-17.98 20.07-37.34 29.06-57.85a112.3 112.3 0 0 1 31.58-42.56v-1.19a113.001 113.001 0 0 0-32.45 43.36c-8.99 20.48-17.47 39.81-28.99 57.6a324.268 324.268 0 0 1-58.14 68.74c-4.86 3.7-9.95 7.1-15.23 10.17-18.28 11.46-43.33 27.11-42.15 38.56.8 7.88 12.45 11.72 35.55 11.72 9.03 0 18.05-.58 24.68-1 3.87-.25 6.97-.44 8.76-.44a238.49 238.49 0 0 1 90.79 16.48h2.59a238.565 238.565 0 0 0-93.28-17.32zM713.6 91.551a71.492 71.492 0 0 0 15.2-1.952c5.888-1.312 11.456-2.56 16.512-3.2 8.576-1.152 16.864-1.632 24.224-2.048a50.524 50.524 0 0 0 23.104-6.912C822.432 60 834.88 24.383 838.848 9.887a462.16 462.16 0 0 1 2.848-9.856h-.992c-.928 3.2-1.856 6.208-2.784 9.6-3.936 14.4-16.288 49.728-45.76 66.976a49.634 49.634 0 0 1-22.72 6.784c-7.328.416-15.648.896-24.256 2.048-5.088.704-10.688 1.92-16.608 3.2a71.2 71.2 0 0 1-14.976 1.92c-7.072 0-12-1.824-15.072-5.568-4.544-5.504-5.184-15.424-2.016-31.136l.512-2.56c4.256-21.632 11.584-38.4 23.136-51.2h-1.248c-11.36 13.056-18.592 29.664-22.848 51.2l-.512 2.56c-3.2 16-2.496 26.176 2.24 32 3.328 3.744 8.48 5.696 15.808 5.696zM1324.96 204.577c-23.14 0-49.99 4.576-78.4 9.44-35.97 6.144-73.19 12.48-114.56 12.48h-9.03l-7.07-.192c-5.79 0-11.29-.32-16.45-.32-44.8 0-47.04 24.64-49.4 50.752-1.28 14.304-2.6 29.088-10.5 41.6-2.82 4.512-10.37 10.176-18.37 16.192-17.05 12.8-36.381 27.328-27.101 40.928a17.196 17.196 0 0 0 14.271 8.8 21.27 21.27 0 0 0 9.6-2.656c15.14-7.808 31.3-30.88 44.29-49.44 7.39-10.56 13.76-19.648 17.25-21.728a21.368 21.368 0 0 1 11.23-2.464h8.29a21.8 21.8 0 0 0 16-5.216c6.04-5.504 6.81-12.8 7.55-19.552.67-6.4 1.28-12.096 5.41-17.024 12.48-14.912 56.25-25.344 85.21-32.224 8.55-2.048 16-3.776 21.38-5.376a270.005 270.005 0 0 1 74.24-10.72c53.5 0 96.29 17.536 131.2 38.4v-1.888c-34.95-20.864-77.73-38.4-131.2-38.4a271.98 271.98 0 0 0-74.75 11.232c-5.44 1.568-12.8 3.2-21.28 5.344-30.92 7.36-73.25 17.44-86.08 32.768-4.45 5.312-5.12 11.68-5.8 17.856-.73 6.912-1.4 13.472-7.04 18.56a20.158 20.158 0 0 1-6.91 3.875 20.265 20.265 0 0 1-7.87.925h-8.29c-4.19-.228-8.36.702-12.06 2.688-3.78 2.272-9.92 11.04-17.73 22.176-12.19 17.44-28.8 41.344-43.68 48.96-9.02 4.64-16.16 2.816-21.919-5.632-8.416-12.352 10.269-26.368 26.749-38.752 8.48-6.4 15.81-11.872 18.79-16.608 8.06-12.8 9.4-27.904 10.72-42.4 2.4-26.432 4.44-49.28 47.8-49.28 5.16 0 10.63 0 16.42.32l7.04.192h9.09c41.6 0 78.78-6.4 114.85-12.512 28.32-4.832 55.1-9.408 78.11-9.408a117.894 117.894 0 0 1 32.38 4.032c26.15 7.296 53.86 20.64 82.66 36.096v-1.92c-28.8-15.2-56.16-28.352-82.21-35.808a118.716 118.716 0 0 0-32.83-4.096z"/><path d="M720.001 57.792c2.464 4.768 7.744 7.2 15.776 7.2a53.165 53.165 0 0 0 6.816-.512c9.376-1.248 18.144-1.76 25.92-2.208a29.313 29.313 0 0 0 13.216-3.936c17.28-10.112 37.76-39.904 38.4-58.336h-1.6c-.704 17.696-21.056 47.264-37.664 56.96a26.888 26.888 0 0 1-6.4 2.688 27.933 27.933 0 0 1-6.4 1.024c-7.744.448-16.544.96-25.984 2.24-11.04 1.472-18.208-.512-20.96-5.856-3.712-7.264.704-21.216 11.584-36.48A67.965 67.965 0 0 1 757.281 0h-3.36a68.321 68.321 0 0 0-22.4 19.648c-11.52 15.968-15.744 30.24-11.52 38.144zM1228.61 874.498c5.95 8.576 18.53 9.6 35.93 10.848l5.83.48c5.5.448 11.26.64 17.34.832 28.29.992 60.35 2.08 89.31 28.448l.36.32c16 14.048 25.6 38.816 34.04 60.8 8.45 21.984 15.81 41.024 27.49 41.024h1.09v-.99c-.36.03-.73.03-1.09 0-11.01 0-18.24-18.722-26.59-40.418-8.35-21.696-18.08-46.816-34.3-61.056l-.36-.288c-29.21-26.624-61.47-27.712-89.92-28.8-6.08-.192-11.84-.384-17.31-.832l-5.82-.448c-17.15-1.344-29.51-2.272-35.2-10.464-5.7-8.192-4.64-22.4 2.46-47.04a179.283 179.283 0 0 0 7.46-64c-3.2-41.12-20.39-78.08-37.03-113.824-17.34-37.28-33.72-72.512-25.15-96.704 14.27-40.288 83.2-111.392 111.75-115.2 1.12-.145 2.25-.209 3.39-.192 23.84 0 77.76 19.84 147.71 62.656v-1.12c-69.89-42.72-123.81-62.496-147.71-62.496-1.18-.017-2.35.047-3.52.192-28.8 3.936-98.18 75.424-112.55 115.904-8.7 24.544 7.78 59.968 25.25 97.472 16.58 35.52 33.73 72.352 36.93 113.312 1.4 21.522-1.11 43.12-7.42 63.744-7.3 25.408-8 39.744-2.37 47.84zM645.12 1163.87c47.648-5.41 104.384-62.02 119.584-105.28 26.432-75.137-20.512-135.617-65.92-194.081-43.84-56.48-85.216-109.792-65.088-174.72 17.536-56.544 74.176-87.072 118.56-87.072 23.936 0 44.608 8.48 58.272 23.904 16.224 18.304 22.592 46.112 18.432 80.416-14.304 117.856-18.56 246.784 112.832 284.8a158.721 158.721 0 0 0 44.256 6.56c55.292 0 90.622-31.712 110.492-58.272 38.12-50.976 51.36-127.232 32.93-189.76-15.61-52.992-46.37-104.384-93.95-157.12-70.784-78.4-167.136-145.824-294.624-206.08l-5.504-2.624c-53.632-25.344-109.088-51.584-167.488-66.048-3.456-.864-7.296-1.888-11.392-2.976-18.048-4.768-40.48-10.752-59.744-10.752a59.329 59.329 0 0 0-19.84 2.944c-8.32 2.976-12.992 8.672-17.536 14.176a47.441 47.441 0 0 1-11.872 11.392 125.59 125.59 0 0 1-16.224 7.008c-10.784 4.16-21.984 8.48-25.6 12.608-6.816 8-4.96 12.8-3.2 17.472a14.464 14.464 0 0 1 .928 11.2l-1.248 3.712c-9.6 28.512-9.6 28.512-32 34.976-4.32 1.248-9.6 2.784-16 4.832-18.4 5.856-25.952 14.88-33.248 23.616A63.992 63.992 0 0 1 300 466.877h-.896c-11.52 0-98.88 5.76-105.6 27.232-1.824 5.792 2.112 12.096 11.68 18.688A44.801 44.801 0 0 0 232 522.045c2.816 0 5.344-.256 7.808-.48a57.829 57.829 0 0 1 5.984-.416c7.04 0 14.144 2.016 23.904 26.016 2.4 5.92 4.256 10.784 5.792 14.784 7.552 19.776 7.776 20.032 26.976 28.224 4.768 2.048 10.688 4.576 18.208 8.032 24.704 11.392 29.76 24.352 36.16 40.736a147.18 147.18 0 0 0 14.496 29.472 212.648 212.648 0 0 0 25.6 30.496c15.648 16.288 30.432 31.68 35.2 57.376 8.16 44.512-16 87.008-43.328 126.304-13.248 19.04-40.48 41.248-69.312 64.736-48.768 39.84-104.256 85.025-104.448 126.915 0 23.9 6.016 42.24 18.24 54.4 13.312 13.37 33.536 19.9 61.856 19.9 41.024 0 91.488-13.85 136-26.08 35.2-9.6 65.28-17.89 84.64-17.89 3.713-.09 7.421.35 11.008 1.32 18.656 5.53 33.472 17.37 47.776 28.8 18.976 15.2 36.928 29.53 62.56 29.53 2.671.04 5.343-.08 8-.35zM527.424 1104a40.18 40.18 0 0 0-11.648-1.41c-19.648 0-50.048 8.32-85.248 17.98-44.384 12.16-94.656 25.96-135.392 25.99-27.68 0-47.424-6.4-60.288-19.2-11.776-11.84-17.696-29.63-17.568-52.93.32-40.83 55.232-85.857 103.808-125.409 28.8-23.584 56.288-45.856 69.696-65.184 27.616-39.712 52-82.688 43.712-128-4.832-26.336-19.84-41.952-35.712-58.496a213.407 213.407 0 0 1-25.6-30.176 146.702 146.702 0 0 1-14.272-29.088c-6.592-16.832-11.776-30.144-37.312-41.92-7.552-3.488-13.472-6.016-18.24-8.064-18.496-7.904-18.496-7.904-25.792-26.976a790.733 790.733 0 0 0-5.792-14.816c-9.312-22.912-16.576-27.424-25.984-27.424a61.062 61.062 0 0 0-6.208.416c-2.4.224-4.896.48-7.584.48a42.557 42.557 0 0 1-25.6-8.832c-8.64-6.016-12.288-11.456-10.816-16.192 5.856-18.656 87.264-25.6 103.456-25.6h.8l.256-1.024.48.96a65.785 65.785 0 0 0 21.984-18.912c7.424-8.896 14.432-17.248 32.224-22.944 6.4-2.016 11.712-3.552 16-4.8 23.264-6.72 23.552-7.072 33.536-36.416l1.28-3.712a16.621 16.621 0 0 0-.992-12.8c-1.696-4.416-3.2-8.224 2.752-15.2 3.2-3.712 14.56-8.128 24.608-12a128.721 128.721 0 0 0 16.608-7.168 50.075 50.075 0 0 0 12.544-11.936c4.544-5.536 8.832-10.72 16.544-13.504a57.594 57.594 0 0 1 19.2-2.816c18.976 0 41.248 5.92 59.168 10.688 4.096 1.088 7.936 2.112 11.424 2.976 58.176 14.4 113.536 40.576 167.072 65.92l5.504 2.592c127.2 60.16 223.36 127.392 293.918 205.536 47.36 52.512 77.95 103.616 93.47 156.288 18.24 61.888 5.12 137.312-32.57 187.776-19.59 26.176-54.4 57.376-108.802 57.376a156.794 156.794 0 0 1-43.648-6.4c-129.6-37.472-125.408-165.376-111.232-282.432 4.256-34.944-2.304-63.36-18.976-82.144-14.08-16-35.36-24.672-59.936-24.672-45.184 0-102.848 31.072-120.704 88.672-20.48 66.016 23.2 122.304 65.472 176.704 45.024 58.016 91.584 118.016 65.568 192.003-15.008 42.69-70.848 98.49-117.728 103.84-2.571.29-5.156.44-7.744.45-24.864 0-42.496-14.12-61.152-29.06-14.496-11.52-29.472-23.49-48.544-28.99z"/><path d="M700.225 116.48a161.185 161.185 0 0 0 33.504-5.024c5.408-1.184 10.528-2.336 14.656-2.88 7.712-1.056 15.232-1.472 22.4-1.92 15.104-.864 29.408-1.664 40.768-8.128 9.152-5.216 15.808-13.792 20.384-26.208A459.43 459.43 0 0 1 864.801 0h-1.088a460.697 460.697 0 0 0-32.544 72c-4.512 12.192-11.04 20.608-19.968 25.6-11.136 6.4-25.344 7.136-40.352 8-7.296.448-14.816.864-22.592 1.92-4.16.544-9.312 1.696-14.752 2.912a161.555 161.555 0 0 1-33.28 4.992c-10.592 0-18.08-2.56-22.912-7.872-11.776-12.8-5.888-42.336-2.72-58.144l.512-2.528A140.393 140.393 0 0 1 692.609 0h-1.12a142.044 142.044 0 0 0-17.344 46.816l-.48 2.496c-3.2 16-9.152 45.728 2.944 58.976 4.992 5.504 12.736 8.192 23.616 8.192z"/><path d="M947.935 0h-2.208a132.5 132.5 0 0 0-9.952 11.616c-35.2 48-50.944 92.256-47.84 135.392 1.184 16.768-.864 27.872-6.4 33.952a19.186 19.186 0 0 1-15.104 5.728c-9.312 0-20.8-3.552-32.928-7.296a184.616 184.616 0 0 0-33.216-8.128 230.236 230.236 0 0 0-24.768-1.312c-27.136 0-52.896 4.32-80 8.896l-13.824 2.304h-.352a194.468 194.468 0 0 1-30.976 3.2c-19.968.16-32.768-6.464-39.168-20.096-13.184-28.448-9.6-62.688-6.24-92.8.416-4.064.864-8.096 1.248-12.064A285.21 285.21 0 0 1 617.855 0h-1.696a289.354 289.354 0 0 0-11.36 59.104c-.384 3.968-.8 8-1.248 12.064-3.2 30.432-7.008 64.928 6.4 93.792 6.624 14.24 19.872 21.152 40.512 21.152a196.964 196.964 0 0 0 31.232-3.2h.352l13.824-2.304c27.2-4.544 52.928-8.864 80-8.864a227.79 227.79 0 0 1 24.608 1.312 183.147 183.147 0 0 1 32.896 8.064c12.256 3.776 23.84 7.36 33.408 7.36a20.555 20.555 0 0 0 16.288-6.4c5.76-6.4 7.936-17.888 6.688-35.2-3.2-42.72 12.512-86.656 47.552-134.4A137.214 137.214 0 0 1 947.935 0z"/><path d="M937.6 242.556c-10.848 7.68-25.6 11.392-45.408 11.392-23.168 0-49.056-5.184-71.904-9.6-13.44-2.688-26.176-5.248-36.544-6.4a347.519 347.519 0 0 0-35.584-1.824c-31.168 0-71.168 4.224-84.576 24.352-5.856 8.768-6.08 19.744-.736 32.704 2.528 6.048 9.056 9.376 15.36 12.544a36.601 36.601 0 0 1 12.992 8.928 60.823 60.823 0 0 1 7.328 17.344c2.592 8.352 5.248 16.96 11.296 22.048a38.406 38.406 0 0 0 25.952 9.248 111.812 111.812 0 0 0 21.28-2.816 109.427 109.427 0 0 1 20.96-2.784 37.148 37.148 0 0 1 17.6 4.032c12.8 6.4 18.08 15.36 23.264 23.904 6.752 11.136 13.12 21.632 34.112 26.56 43.968 10.272 56 21.024 85.088 46.976 3.744 3.2 7.775 6.944 12.192 10.816a178.26 178.26 0 0 1 25.6 29.824 203.218 203.218 0 0 0 22.4 26.976 99.354 99.354 0 0 0 31.168 19.712c13.25 6.048 25.76 11.744 37.12 31.232l1.79 3.2c14.31 24.704 28.8 47.584 37.63 47.584.7.008 1.38-.137 2.01-.424a4.74 4.74 0 0 0 1.64-1.24c3.2-3.488 4.07-12.8 2.66-28.48-.83-9.152-7.46-17.376-13.89-25.312-6.91-8.544-13.44-16.608-13.06-25.6.48-10.72 6.95-16 13.8-21.536a43.065 43.065 0 0 0 13.24-14.848c7.3-15.712 9.06-29.76 10.79-43.36 2.37-18.944 4.61-36.8 21.53-57.024a245.762 245.762 0 0 1 119.78-76.992 158.82 158.82 0 0 1 44.32-6.72c48 0 82.3 26.08 118.72 53.664l12.48 9.408v-2.848c-3.74-2.784-7.46-5.6-11.14-8.384-36.7-27.84-71.39-54.112-120.06-54.112a161.029 161.029 0 0 0-44.8 6.752 247.695 247.695 0 0 0-120.83 77.696c-17.38 20.704-19.65 38.912-22.08 58.176-1.7 13.44-3.43 27.328-10.56 42.688a41.258 41.258 0 0 1-12.64 14.048c-6.91 5.664-14.11 11.488-14.63 23.2-.41 9.76 6.69 18.56 13.57 27.04 6.21 7.68 12.61 15.616 13.38 24.128 1.66 18.4-.19 24.704-2.05 26.752a2.665 2.665 0 0 1-2.02.928c-8.83 0-27.64-32.544-35.71-46.464l-1.76-3.2c-11.71-20.128-24.57-25.952-38.14-32.16a98.197 98.197 0 0 1-30.563-19.2 204.22 204.22 0 0 1-22.208-26.688 180.347 180.347 0 0 0-25.983-30.208c-4.416-3.84-8.448-7.456-12.192-10.784-29.408-26.24-41.6-37.088-86.08-47.488-20.096-4.704-26.208-14.848-32.704-25.6-5.344-8.8-10.848-17.92-24.16-24.768a39.828 39.828 0 0 0-18.624-4.256 113.124 113.124 0 0 0-21.408 2.816 108.613 108.613 0 0 1-20.832 2.784 36.132 36.132 0 0 1-24.512-8.736c-5.536-4.672-8.128-12.8-10.592-20.96a61.474 61.474 0 0 0-7.68-18.016 37.372 37.372 0 0 0-13.792-9.6c-6.4-3.2-12.096-6.112-14.304-11.424-5.056-12.224-4.896-22.4.512-30.592 12.8-19.2 52.096-23.36 82.72-23.36a344.865 344.865 0 0 1 35.2 1.792c10.304 1.12 22.976 3.648 36.384 6.4 22.944 4.576 48.928 9.792 72.32 9.792 20.16 0 35.456-3.84 46.688-11.808 28-19.776 19.968-49.632 12.224-78.528-8.32-30.848-16.896-62.752 17.6-83.553a31.647 31.647 0 0 1 16.416-3.776c20.64 0 49.7 11.297 77.79 22.209 24.48 9.6 47.59 18.464 62.63 18.816h6.4c32.32 0 64.99-5.568 96.57-10.976 31.59-5.408 64.16-10.945 96.39-10.945 21-.198 41.93 2.56 62.17 8.193a409.487 409.487 0 0 1 53.09 19.616v-2.464a412.752 412.752 0 0 0-52.26-19.2 225.963 225.963 0 0 0-62.78-8.288c-32.42 0-65.12 5.6-96.74 10.976-31.61 5.376-64 10.944-96.22 10.944h-6.4c-14.66-.352-37.6-9.248-61.86-18.688-28.32-10.976-57.6-22.4-78.62-22.4a33.285 33.285 0 0 0-17.569 4.096c-35.935 21.696-27.135 54.4-18.623 86.048 7.872 29.408 15.328 57.216-11.328 76.096zM665.375 160.828c8.916-.199 17.8-1.141 26.56-2.816a552.829 552.829 0 0 1 93.28-7.328c8.48 0 17.184 0 26.656.416 3.2 0 6.144.16 8.736.16 15.648 0 24.768-1.888 31.488-6.4 8.064-5.568 12.8-15.328 16-32.608 7.232-39.68 23.168-75.328 50.048-112h-1.184c-26.752 36.448-42.624 72.064-49.76 111.744-3.2 16.992-7.776 26.56-15.584 32-6.56 4.512-15.52 6.4-30.944 6.4h-8.704c-9.6-.288-18.208-.416-26.688-.416a551.609 551.609 0 0 0-93.44 7.36 161.723 161.723 0 0 1-26.4 2.784c-19.2 0-33.12-6.4-37.952-37.984-4.608-30.176-.512-62.112 3.712-83.584a210.288 210.288 0 0 1 11.296-38.4h-1.024a206.371 206.371 0 0 0-11.2 38.144c-4.256 21.536-8.352 53.568-3.744 83.872 4.16 27.424 15.424 38.656 38.848 38.656z"/><path d="M678.56 136.8a58.195 58.195 0 0 0 9.6-.864 575.23 575.23 0 0 1 80.928-7.456c6.4 0 12.8 0 18.944.16 4.064 0 7.904.192 11.648.192 11.488 0 23.424-.896 32.608-7.328 7.648-5.376 13.056-14.24 16.608-27.136A328.494 328.494 0 0 1 890.944 0h-1.152A329.61 329.61 0 0 0 848 94.112c-3.488 12.8-8.8 21.376-16.224 26.592-8.992 6.4-20.736 7.168-32 7.168-3.744 0-7.552 0-11.616-.192-6.048 0-12.384-.32-19.008 0A577.095 577.095 0 0 0 688 134.976c-14.624 2.464-25.6-.48-32.288-8.736-15.456-18.784-7.136-60.8-2.656-83.584A173.79 173.79 0 0 1 667.072 0h-1.088a176.013 176.013 0 0 0-13.792 42.464c-4.512 22.816-12.8 65.248 2.848 84.384a28.798 28.798 0 0 0 23.52 9.952z"/></g><defs><clipPath id="a"><path fill="#fff" d="M0 0h1440v1440H0z"/></clipPath></defs></svg>